<mxfile host="Electron" agent="Mozilla/5.0 (Windows NT 10.0; Win64; x64) AppleWebKit/537.36 (KHTML, like Gecko) draw.io/24.7.5 Chrome/126.0.6478.183 Electron/31.3.0 Safari/537.36" version="24.7.5" pages="2">
  <diagram name="第 1 页" id="P7eTNKDxkzyfS5kBPNdI">
    <mxGraphModel dx="1379" dy="1187" grid="1" gridSize="10" guides="1" tooltips="1" connect="0" arrows="1" fold="1" page="1" pageScale="1" pageWidth="827" pageHeight="1169" math="0" shadow="0">
      <root>
        <mxCell id="0" />
        <mxCell id="1" parent="0" />
        <mxCell id="2qkLxTigW8_xTqNTsMzs-25" value="" style="rounded=0;whiteSpace=wrap;html=1;strokeColor=#0e8088;align=center;verticalAlign=middle;fontFamily=Helvetica;fontSize=16;fillColor=#b0e3e6;" parent="1" vertex="1">
          <mxGeometry x="375" y="890" width="360" height="660" as="geometry" />
        </mxCell>
        <mxCell id="2qkLxTigW8_xTqNTsMzs-35" style="edgeStyle=orthogonalEdgeStyle;rounded=0;orthogonalLoop=1;jettySize=auto;html=1;entryX=0.5;entryY=0;entryDx=0;entryDy=0;fontFamily=Helvetica;fontSize=16;fontColor=default;" parent="1" source="2qkLxTigW8_xTqNTsMzs-8" target="2qkLxTigW8_xTqNTsMzs-30" edge="1">
          <mxGeometry relative="1" as="geometry" />
        </mxCell>
        <mxCell id="2qkLxTigW8_xTqNTsMzs-36" style="edgeStyle=orthogonalEdgeStyle;rounded=0;orthogonalLoop=1;jettySize=auto;html=1;entryX=0.5;entryY=0;entryDx=0;entryDy=0;fontFamily=Helvetica;fontSize=16;fontColor=default;" parent="1" source="2qkLxTigW8_xTqNTsMzs-8" target="2qkLxTigW8_xTqNTsMzs-31" edge="1">
          <mxGeometry relative="1" as="geometry" />
        </mxCell>
        <mxCell id="2qkLxTigW8_xTqNTsMzs-8" value="" style="rounded=0;whiteSpace=wrap;html=1;strokeColor=#666666;align=center;verticalAlign=middle;fontFamily=Helvetica;fontSize=16;fontColor=#333333;fillColor=#f5f5f5;" parent="1" vertex="1">
          <mxGeometry x="445" y="1030" width="220" height="330" as="geometry" />
        </mxCell>
        <mxCell id="1pH_1kf8nqB_YHLvuyaA-54" value="" style="rounded=0;whiteSpace=wrap;html=1;fillColor=#f5f5f5;fontColor=#333333;strokeColor=#666666;" parent="1" vertex="1">
          <mxGeometry x="1340" y="100" width="440" height="270" as="geometry" />
        </mxCell>
        <mxCell id="1pH_1kf8nqB_YHLvuyaA-53" style="edgeStyle=orthogonalEdgeStyle;rounded=0;orthogonalLoop=1;jettySize=auto;html=1;entryX=0;entryY=0.5;entryDx=0;entryDy=0;" parent="1" source="1pH_1kf8nqB_YHLvuyaA-51" target="1pH_1kf8nqB_YHLvuyaA-35" edge="1">
          <mxGeometry relative="1" as="geometry" />
        </mxCell>
        <mxCell id="1pH_1kf8nqB_YHLvuyaA-51" value="" style="rounded=0;whiteSpace=wrap;html=1;fillColor=#f5f5f5;fontColor=#333333;strokeColor=#666666;" parent="1" vertex="1">
          <mxGeometry x="1050" y="175" width="230" height="150" as="geometry" />
        </mxCell>
        <mxCell id="1pH_1kf8nqB_YHLvuyaA-48" value="" style="rounded=0;whiteSpace=wrap;html=1;fillColor=#f5f5f5;fontColor=#333333;strokeColor=#666666;" parent="1" vertex="1">
          <mxGeometry x="160" y="180" width="110" height="150" as="geometry" />
        </mxCell>
        <mxCell id="1pH_1kf8nqB_YHLvuyaA-46" value="" style="rounded=0;whiteSpace=wrap;html=1;fillColor=#f5f5f5;fontColor=#333333;strokeColor=#666666;" parent="1" vertex="1">
          <mxGeometry x="300" y="180" width="680" height="150" as="geometry" />
        </mxCell>
        <mxCell id="1pH_1kf8nqB_YHLvuyaA-6" style="edgeStyle=orthogonalEdgeStyle;rounded=0;orthogonalLoop=1;jettySize=auto;html=1;entryX=0;entryY=0.5;entryDx=0;entryDy=0;" parent="1" source="1pH_1kf8nqB_YHLvuyaA-1" target="1pH_1kf8nqB_YHLvuyaA-5" edge="1">
          <mxGeometry relative="1" as="geometry" />
        </mxCell>
        <mxCell id="1pH_1kf8nqB_YHLvuyaA-1" value="创建组件" style="rounded=0;whiteSpace=wrap;html=1;fontSize=16;fillColor=#ffe6cc;strokeColor=#d79b00;" parent="1" vertex="1">
          <mxGeometry x="40" y="215" width="70" height="40" as="geometry" />
        </mxCell>
        <mxCell id="1pH_1kf8nqB_YHLvuyaA-30" style="edgeStyle=orthogonalEdgeStyle;rounded=0;orthogonalLoop=1;jettySize=auto;html=1;entryX=0.5;entryY=0;entryDx=0;entryDy=0;" parent="1" source="1pH_1kf8nqB_YHLvuyaA-3" target="1pH_1kf8nqB_YHLvuyaA-27" edge="1">
          <mxGeometry relative="1" as="geometry" />
        </mxCell>
        <mxCell id="1pH_1kf8nqB_YHLvuyaA-3" value="DisposableBean" style="rounded=0;whiteSpace=wrap;fontSize=16;fillColor=#d5e8d4;strokeColor=#82b366;" parent="1" vertex="1">
          <mxGeometry x="1500" y="130" width="130" height="50" as="geometry" />
        </mxCell>
        <mxCell id="1pH_1kf8nqB_YHLvuyaA-22" style="edgeStyle=orthogonalEdgeStyle;rounded=0;orthogonalLoop=1;jettySize=auto;html=1;" parent="1" source="1pH_1kf8nqB_YHLvuyaA-5" target="1pH_1kf8nqB_YHLvuyaA-21" edge="1">
          <mxGeometry relative="1" as="geometry" />
        </mxCell>
        <mxCell id="1pH_1kf8nqB_YHLvuyaA-5" value="构造器" style="rounded=0;whiteSpace=wrap;html=1;fontSize=16;fillColor=#fff2cc;strokeColor=#d6b656;" parent="1" vertex="1">
          <mxGeometry x="160" y="210" width="100" height="50" as="geometry" />
        </mxCell>
        <mxCell id="1pH_1kf8nqB_YHLvuyaA-24" style="edgeStyle=orthogonalEdgeStyle;rounded=0;orthogonalLoop=1;jettySize=auto;html=1;entryX=0;entryY=0.5;entryDx=0;entryDy=0;" parent="1" source="1pH_1kf8nqB_YHLvuyaA-7" target="1pH_1kf8nqB_YHLvuyaA-13" edge="1">
          <mxGeometry relative="1" as="geometry" />
        </mxCell>
        <mxCell id="1pH_1kf8nqB_YHLvuyaA-7" value="&lt;div&gt;init 指定&lt;/div&gt;&lt;div&gt;初始化方法&lt;/div&gt;" style="rounded=0;whiteSpace=wrap;html=1;fontSize=16;fillColor=#dae8fc;strokeColor=#6c8ebf;" parent="1" vertex="1">
          <mxGeometry x="820" y="210" width="100" height="50" as="geometry" />
        </mxCell>
        <mxCell id="1pH_1kf8nqB_YHLvuyaA-10" style="edgeStyle=orthogonalEdgeStyle;rounded=0;orthogonalLoop=1;jettySize=auto;html=1;entryX=0.5;entryY=0;entryDx=0;entryDy=0;" parent="1" source="1pH_1kf8nqB_YHLvuyaA-8" target="1pH_1kf8nqB_YHLvuyaA-7" edge="1">
          <mxGeometry relative="1" as="geometry" />
        </mxCell>
        <mxCell id="1pH_1kf8nqB_YHLvuyaA-8" value="@Bean" style="rounded=0;whiteSpace=wrap;html=1;fontSize=16;fillColor=#d5e8d4;strokeColor=#82b366;" parent="1" vertex="1">
          <mxGeometry x="820" y="115" width="100" height="50" as="geometry" />
        </mxCell>
        <mxCell id="1pH_1kf8nqB_YHLvuyaA-13" value="运行中" style="rounded=0;whiteSpace=wrap;html=1;fontSize=16;" parent="1" vertex="1">
          <mxGeometry x="1115" y="210" width="100" height="50" as="geometry" />
        </mxCell>
        <mxCell id="1pH_1kf8nqB_YHLvuyaA-14" value="容器结束" style="rounded=0;whiteSpace=wrap;html=1;fontSize=16;" parent="1" vertex="1">
          <mxGeometry x="1790" y="225" width="80" height="50" as="geometry" />
        </mxCell>
        <mxCell id="1pH_1kf8nqB_YHLvuyaA-18" style="edgeStyle=orthogonalEdgeStyle;rounded=0;orthogonalLoop=1;jettySize=auto;html=1;" parent="1" source="1pH_1kf8nqB_YHLvuyaA-15" target="1pH_1kf8nqB_YHLvuyaA-14" edge="1">
          <mxGeometry relative="1" as="geometry" />
        </mxCell>
        <mxCell id="1pH_1kf8nqB_YHLvuyaA-15" value="&lt;div&gt;destory指定&lt;/div&gt;&lt;div&gt;销毁方法&lt;/div&gt;" style="rounded=0;whiteSpace=wrap;html=1;fontSize=16;fillColor=#dae8fc;strokeColor=#6c8ebf;" parent="1" vertex="1">
          <mxGeometry x="1650" y="225" width="100" height="50" as="geometry" />
        </mxCell>
        <mxCell id="1pH_1kf8nqB_YHLvuyaA-20" style="edgeStyle=orthogonalEdgeStyle;rounded=0;orthogonalLoop=1;jettySize=auto;html=1;entryX=0.5;entryY=0;entryDx=0;entryDy=0;" parent="1" source="1pH_1kf8nqB_YHLvuyaA-19" target="1pH_1kf8nqB_YHLvuyaA-15" edge="1">
          <mxGeometry relative="1" as="geometry" />
        </mxCell>
        <mxCell id="1pH_1kf8nqB_YHLvuyaA-19" value="@Bean" style="rounded=0;whiteSpace=wrap;html=1;fontSize=16;fillColor=#d5e8d4;strokeColor=#82b366;" parent="1" vertex="1">
          <mxGeometry x="1650" y="130" width="100" height="50" as="geometry" />
        </mxCell>
        <mxCell id="1pH_1kf8nqB_YHLvuyaA-41" style="edgeStyle=orthogonalEdgeStyle;rounded=0;orthogonalLoop=1;jettySize=auto;html=1;entryX=0;entryY=0.5;entryDx=0;entryDy=0;" parent="1" source="1pH_1kf8nqB_YHLvuyaA-21" target="1pH_1kf8nqB_YHLvuyaA-38" edge="1">
          <mxGeometry relative="1" as="geometry" />
        </mxCell>
        <mxCell id="1pH_1kf8nqB_YHLvuyaA-21" value="@Autowired&lt;div&gt;set属性注入&lt;/div&gt;" style="rounded=0;whiteSpace=wrap;html=1;fontSize=16;fillColor=#e1d5e7;strokeColor=#9673a6;" parent="1" vertex="1">
          <mxGeometry x="314" y="210" width="100" height="50" as="geometry" />
        </mxCell>
        <mxCell id="1pH_1kf8nqB_YHLvuyaA-29" style="edgeStyle=orthogonalEdgeStyle;rounded=0;orthogonalLoop=1;jettySize=auto;html=1;" parent="1" source="1pH_1kf8nqB_YHLvuyaA-26" target="1pH_1kf8nqB_YHLvuyaA-28" edge="1">
          <mxGeometry relative="1" as="geometry" />
        </mxCell>
        <mxCell id="1pH_1kf8nqB_YHLvuyaA-26" value="InitializingBean" style="rounded=0;whiteSpace=wrap;fontSize=16;fillColor=#d5e8d4;strokeColor=#82b366;" parent="1" vertex="1">
          <mxGeometry x="600" y="115" width="160" height="50" as="geometry" />
        </mxCell>
        <mxCell id="1pH_1kf8nqB_YHLvuyaA-33" style="edgeStyle=orthogonalEdgeStyle;rounded=0;orthogonalLoop=1;jettySize=auto;html=1;entryX=0;entryY=0.5;entryDx=0;entryDy=0;" parent="1" source="1pH_1kf8nqB_YHLvuyaA-27" target="1pH_1kf8nqB_YHLvuyaA-15" edge="1">
          <mxGeometry relative="1" as="geometry" />
        </mxCell>
        <mxCell id="1pH_1kf8nqB_YHLvuyaA-27" value="destroy&#xa;销毁" style="rounded=0;whiteSpace=wrap;fontSize=16;fillColor=#e1d5e7;strokeColor=#9673a6;" parent="1" vertex="1">
          <mxGeometry x="1515" y="225" width="100" height="50" as="geometry" />
        </mxCell>
        <mxCell id="1pH_1kf8nqB_YHLvuyaA-32" style="edgeStyle=orthogonalEdgeStyle;rounded=0;orthogonalLoop=1;jettySize=auto;html=1;entryX=0;entryY=0.5;entryDx=0;entryDy=0;" parent="1" source="1pH_1kf8nqB_YHLvuyaA-28" target="1pH_1kf8nqB_YHLvuyaA-7" edge="1">
          <mxGeometry relative="1" as="geometry" />
        </mxCell>
        <mxCell id="1pH_1kf8nqB_YHLvuyaA-28" value="afterPropertiesSet&#xa;属性设置之后" style="rounded=0;whiteSpace=wrap;fontSize=16;fillColor=#e1d5e7;strokeColor=#9673a6;" parent="1" vertex="1">
          <mxGeometry x="600" y="210" width="160" height="50" as="geometry" />
        </mxCell>
        <mxCell id="1pH_1kf8nqB_YHLvuyaA-37" style="edgeStyle=orthogonalEdgeStyle;rounded=0;orthogonalLoop=1;jettySize=auto;html=1;entryX=0;entryY=0.5;entryDx=0;entryDy=0;" parent="1" source="1pH_1kf8nqB_YHLvuyaA-35" target="1pH_1kf8nqB_YHLvuyaA-27" edge="1">
          <mxGeometry relative="1" as="geometry" />
        </mxCell>
        <mxCell id="1pH_1kf8nqB_YHLvuyaA-35" value="@PreDestroy" style="rounded=0;whiteSpace=wrap;fontSize=16;fillColor=#fff2cc;strokeColor=#d6b656;" parent="1" vertex="1">
          <mxGeometry x="1370" y="220" width="120" height="60" as="geometry" />
        </mxCell>
        <mxCell id="1pH_1kf8nqB_YHLvuyaA-40" style="edgeStyle=orthogonalEdgeStyle;rounded=0;orthogonalLoop=1;jettySize=auto;html=1;entryX=0;entryY=0.5;entryDx=0;entryDy=0;" parent="1" source="1pH_1kf8nqB_YHLvuyaA-38" target="1pH_1kf8nqB_YHLvuyaA-28" edge="1">
          <mxGeometry relative="1" as="geometry" />
        </mxCell>
        <mxCell id="1pH_1kf8nqB_YHLvuyaA-38" value="@PostConstruct" style="rounded=0;whiteSpace=wrap;fontSize=16;fillColor=#fff2cc;strokeColor=#d6b656;" parent="1" vertex="1">
          <mxGeometry x="440" y="215" width="120" height="40" as="geometry" />
        </mxCell>
        <mxCell id="1pH_1kf8nqB_YHLvuyaA-42" value="" style="shape=flexArrow;endArrow=classic;html=1;rounded=0;fillColor=#d80073;strokeColor=#A50040;" parent="1" edge="1">
          <mxGeometry width="50" height="50" relative="1" as="geometry">
            <mxPoint x="279.6" y="415" as="sourcePoint" />
            <mxPoint x="279.6" y="235" as="targetPoint" />
          </mxGeometry>
        </mxCell>
        <mxCell id="1pH_1kf8nqB_YHLvuyaA-43" value="postProcessBeforeInitialization&lt;div style=&quot;font-size: 16px;&quot;&gt;初始化之前后置处理&lt;/div&gt;" style="rounded=0;whiteSpace=wrap;html=1;fontSize=16;fillColor=#d80073;fontColor=#ffffff;strokeColor=#A50040;" parent="1" vertex="1">
          <mxGeometry x="150" y="410" width="250" height="50" as="geometry" />
        </mxCell>
        <mxCell id="1pH_1kf8nqB_YHLvuyaA-44" value="&lt;div style=&quot;font-size: 16px;&quot;&gt;postProcessAfterInitialization&lt;/div&gt;&lt;div style=&quot;font-size: 16px;&quot;&gt;初始化之后后置处理&lt;/div&gt;" style="rounded=0;whiteSpace=wrap;html=1;fontSize=16;fillColor=#d80073;fontColor=#ffffff;strokeColor=#A50040;" parent="1" vertex="1">
          <mxGeometry x="890" y="410" width="250" height="50" as="geometry" />
        </mxCell>
        <mxCell id="1pH_1kf8nqB_YHLvuyaA-45" value="" style="shape=flexArrow;endArrow=classic;html=1;rounded=0;fillColor=#d80073;strokeColor=#A50040;" parent="1" edge="1">
          <mxGeometry width="50" height="50" relative="1" as="geometry">
            <mxPoint x="1020" y="410" as="sourcePoint" />
            <mxPoint x="1020" y="230" as="targetPoint" />
          </mxGeometry>
        </mxCell>
        <mxCell id="1pH_1kf8nqB_YHLvuyaA-47" value="初始化周期" style="rounded=0;whiteSpace=wrap;html=1;fontSize=16;" parent="1" vertex="1">
          <mxGeometry x="610" y="290" width="120" height="40" as="geometry" />
        </mxCell>
        <mxCell id="1pH_1kf8nqB_YHLvuyaA-49" value="创建周期" style="rounded=0;whiteSpace=wrap;html=1;fontSize=16;" parent="1" vertex="1">
          <mxGeometry x="165" y="290" width="95" height="40" as="geometry" />
        </mxCell>
        <mxCell id="1pH_1kf8nqB_YHLvuyaA-52" value="运行周期" style="rounded=0;whiteSpace=wrap;html=1;fontSize=16;" parent="1" vertex="1">
          <mxGeometry x="1105" y="285" width="120" height="40" as="geometry" />
        </mxCell>
        <mxCell id="1pH_1kf8nqB_YHLvuyaA-55" value="销毁周期" style="rounded=0;whiteSpace=wrap;html=1;fontSize=16;" parent="1" vertex="1">
          <mxGeometry x="1515" y="330" width="120" height="40" as="geometry" />
        </mxCell>
        <mxCell id="1pH_1kf8nqB_YHLvuyaA-56" value="@Autowired是如何实现的？&#xa;1、专门有一个处理@Autowired注解的AutowiredAnnotationBeanPostProcessor&#xa;2、每个Bean创建以后，会调用 BeanPostProcessor的 postProcessBeforeInitialization 方法&#xa;3、postProcessBeforeInitialization 里面就会利用反射，得到当前Bean的所有属性，利用反射，得到Bean属性上标注的所有注解，看有没有@Autowired 注解&#xa;4、如果有，去容器中找到这个属性对应的组件（按类型，按名字）找到。" style="rounded=0;whiteSpace=wrap;align=left;verticalAlign=top;fontSize=16;" parent="1" vertex="1">
          <mxGeometry x="520" y="550" width="680" height="150" as="geometry" />
        </mxCell>
        <mxCell id="1pH_1kf8nqB_YHLvuyaA-57" value="扩展：&#xa;1、定义：自定义注解：@UUID&#xa;2、标注在任何Bean的String属性上&#xa;3、以后获取到的这个Bean的这个属性就是一个随机值" style="rounded=0;whiteSpace=wrap;fontSize=16;align=left;fillColor=#f8cecc;strokeColor=#b85450;" parent="1" vertex="1">
          <mxGeometry x="40" y="550" width="440" height="95" as="geometry" />
        </mxCell>
        <mxCell id="2qkLxTigW8_xTqNTsMzs-1" value="" style="endArrow=none;html=1;rounded=0;" parent="1" edge="1">
          <mxGeometry width="50" height="50" relative="1" as="geometry">
            <mxPoint x="60" y="750" as="sourcePoint" />
            <mxPoint x="1490" y="750" as="targetPoint" />
          </mxGeometry>
        </mxCell>
        <mxCell id="2qkLxTigW8_xTqNTsMzs-2" value="&lt;font style=&quot;font-size: 48px;&quot;&gt;组件生命周期&lt;/font&gt;" style="text;html=1;align=center;verticalAlign=middle;resizable=0;points=[];autosize=1;strokeColor=none;fillColor=none;" parent="1" vertex="1">
          <mxGeometry x="140" y="20" width="310" height="70" as="geometry" />
        </mxCell>
        <mxCell id="2qkLxTigW8_xTqNTsMzs-3" value="&lt;font style=&quot;font-size: 48px;&quot;&gt;多切面执行顺序&lt;/font&gt;" style="text;html=1;align=center;verticalAlign=middle;resizable=0;points=[];autosize=1;strokeColor=none;fillColor=none;" parent="1" vertex="1">
          <mxGeometry x="855" y="780" width="360" height="70" as="geometry" />
        </mxCell>
        <mxCell id="2qkLxTigW8_xTqNTsMzs-17" style="edgeStyle=orthogonalEdgeStyle;rounded=0;orthogonalLoop=1;jettySize=auto;html=1;fontFamily=Helvetica;fontSize=16;fontColor=default;" parent="1" source="2qkLxTigW8_xTqNTsMzs-7" target="2qkLxTigW8_xTqNTsMzs-14" edge="1">
          <mxGeometry relative="1" as="geometry" />
        </mxCell>
        <mxCell id="2qkLxTigW8_xTqNTsMzs-18" style="edgeStyle=orthogonalEdgeStyle;rounded=0;orthogonalLoop=1;jettySize=auto;html=1;fontFamily=Helvetica;fontSize=16;fontColor=default;" parent="1" source="2qkLxTigW8_xTqNTsMzs-7" target="2qkLxTigW8_xTqNTsMzs-15" edge="1">
          <mxGeometry relative="1" as="geometry" />
        </mxCell>
        <mxCell id="2qkLxTigW8_xTqNTsMzs-7" value="目标方法" style="rounded=0;whiteSpace=wrap;html=1;strokeColor=#d6b656;align=center;verticalAlign=middle;fontFamily=Helvetica;fontSize=16;fillColor=#fff2cc;" parent="1" vertex="1">
          <mxGeometry x="500" y="1150" width="110" height="40" as="geometry" />
        </mxCell>
        <mxCell id="2qkLxTigW8_xTqNTsMzs-39" style="edgeStyle=orthogonalEdgeStyle;rounded=0;orthogonalLoop=1;jettySize=auto;html=1;entryX=0.5;entryY=0;entryDx=0;entryDy=0;fontFamily=Helvetica;fontSize=16;fontColor=default;" parent="1" source="2qkLxTigW8_xTqNTsMzs-9" target="2qkLxTigW8_xTqNTsMzs-26" edge="1">
          <mxGeometry relative="1" as="geometry" />
        </mxCell>
        <mxCell id="2qkLxTigW8_xTqNTsMzs-9" value="执行" style="ellipse;whiteSpace=wrap;html=1;aspect=fixed;rounded=0;strokeColor=default;align=center;verticalAlign=middle;fontFamily=Helvetica;fontSize=16;fontColor=default;fillColor=default;" parent="1" vertex="1">
          <mxGeometry x="165" y="820" width="80" height="80" as="geometry" />
        </mxCell>
        <mxCell id="2qkLxTigW8_xTqNTsMzs-13" style="edgeStyle=orthogonalEdgeStyle;rounded=0;orthogonalLoop=1;jettySize=auto;html=1;fontFamily=Helvetica;fontSize=16;fontColor=default;" parent="1" source="2qkLxTigW8_xTqNTsMzs-12" target="2qkLxTigW8_xTqNTsMzs-7" edge="1">
          <mxGeometry relative="1" as="geometry" />
        </mxCell>
        <mxCell id="2qkLxTigW8_xTqNTsMzs-12" value="前置" style="rounded=0;whiteSpace=wrap;html=1;strokeColor=#82b366;align=center;verticalAlign=middle;fontFamily=Helvetica;fontSize=16;fillColor=#d5e8d4;" parent="1" vertex="1">
          <mxGeometry x="502.5" y="1080" width="105" height="40" as="geometry" />
        </mxCell>
        <mxCell id="2qkLxTigW8_xTqNTsMzs-19" style="edgeStyle=orthogonalEdgeStyle;rounded=0;orthogonalLoop=1;jettySize=auto;html=1;fontFamily=Helvetica;fontSize=16;fontColor=default;" parent="1" source="2qkLxTigW8_xTqNTsMzs-14" target="2qkLxTigW8_xTqNTsMzs-16" edge="1">
          <mxGeometry relative="1" as="geometry" />
        </mxCell>
        <mxCell id="2qkLxTigW8_xTqNTsMzs-14" value="返回" style="rounded=0;whiteSpace=wrap;html=1;strokeColor=#82b366;align=center;verticalAlign=middle;fontFamily=Helvetica;fontSize=16;fillColor=#d5e8d4;" parent="1" vertex="1">
          <mxGeometry x="465" y="1220" width="70" height="40" as="geometry" />
        </mxCell>
        <mxCell id="2qkLxTigW8_xTqNTsMzs-20" style="edgeStyle=orthogonalEdgeStyle;rounded=0;orthogonalLoop=1;jettySize=auto;html=1;entryX=0.5;entryY=0;entryDx=0;entryDy=0;fontFamily=Helvetica;fontSize=16;fontColor=default;" parent="1" source="2qkLxTigW8_xTqNTsMzs-15" target="2qkLxTigW8_xTqNTsMzs-16" edge="1">
          <mxGeometry relative="1" as="geometry" />
        </mxCell>
        <mxCell id="2qkLxTigW8_xTqNTsMzs-15" value="异常" style="rounded=0;whiteSpace=wrap;html=1;strokeColor=#82b366;align=center;verticalAlign=middle;fontFamily=Helvetica;fontSize=16;fillColor=#d5e8d4;" parent="1" vertex="1">
          <mxGeometry x="585" y="1220" width="70" height="40" as="geometry" />
        </mxCell>
        <mxCell id="2qkLxTigW8_xTqNTsMzs-16" value="后置" style="rounded=0;whiteSpace=wrap;html=1;strokeColor=#82b366;align=center;verticalAlign=middle;fontFamily=Helvetica;fontSize=16;fillColor=#d5e8d4;" parent="1" vertex="1">
          <mxGeometry x="520" y="1300" width="70" height="40" as="geometry" />
        </mxCell>
        <mxCell id="2qkLxTigW8_xTqNTsMzs-24" style="edgeStyle=orthogonalEdgeStyle;rounded=0;orthogonalLoop=1;jettySize=auto;html=1;entryX=0.5;entryY=0;entryDx=0;entryDy=0;fontFamily=Helvetica;fontSize=16;fontColor=default;" parent="1" source="2qkLxTigW8_xTqNTsMzs-21" target="2qkLxTigW8_xTqNTsMzs-12" edge="1">
          <mxGeometry relative="1" as="geometry" />
        </mxCell>
        <mxCell id="2qkLxTigW8_xTqNTsMzs-21" value="代理对象" style="rounded=0;whiteSpace=wrap;html=1;strokeColor=#B20000;align=center;verticalAlign=middle;fontFamily=Helvetica;fontSize=16;fontColor=#ffffff;fillColor=#e51400;" parent="1" vertex="1">
          <mxGeometry x="495" y="1020" width="120" height="30" as="geometry" />
        </mxCell>
        <mxCell id="2qkLxTigW8_xTqNTsMzs-28" style="edgeStyle=orthogonalEdgeStyle;rounded=0;orthogonalLoop=1;jettySize=auto;html=1;fontFamily=Helvetica;fontSize=16;fontColor=default;" parent="1" source="2qkLxTigW8_xTqNTsMzs-26" target="2qkLxTigW8_xTqNTsMzs-27" edge="1">
          <mxGeometry relative="1" as="geometry" />
        </mxCell>
        <mxCell id="2qkLxTigW8_xTqNTsMzs-26" value="代理对象" style="rounded=0;whiteSpace=wrap;html=1;strokeColor=#3700CC;align=center;verticalAlign=middle;fontFamily=Helvetica;fontSize=16;fontColor=#ffffff;fillColor=#6a00ff;" parent="1" vertex="1">
          <mxGeometry x="495" y="880" width="120" height="30" as="geometry" />
        </mxCell>
        <mxCell id="2qkLxTigW8_xTqNTsMzs-29" style="edgeStyle=orthogonalEdgeStyle;rounded=0;orthogonalLoop=1;jettySize=auto;html=1;fontFamily=Helvetica;fontSize=16;fontColor=default;" parent="1" source="2qkLxTigW8_xTqNTsMzs-27" target="2qkLxTigW8_xTqNTsMzs-21" edge="1">
          <mxGeometry relative="1" as="geometry" />
        </mxCell>
        <mxCell id="2qkLxTigW8_xTqNTsMzs-27" value="前置" style="rounded=0;whiteSpace=wrap;html=1;strokeColor=#b46504;align=center;verticalAlign=middle;fontFamily=Helvetica;fontSize=16;fillColor=#fad7ac;" parent="1" vertex="1">
          <mxGeometry x="500" y="940" width="110" height="30" as="geometry" />
        </mxCell>
        <mxCell id="2qkLxTigW8_xTqNTsMzs-37" style="edgeStyle=orthogonalEdgeStyle;rounded=0;orthogonalLoop=1;jettySize=auto;html=1;fontFamily=Helvetica;fontSize=16;fontColor=default;" parent="1" source="2qkLxTigW8_xTqNTsMzs-30" target="2qkLxTigW8_xTqNTsMzs-33" edge="1">
          <mxGeometry relative="1" as="geometry" />
        </mxCell>
        <mxCell id="2qkLxTigW8_xTqNTsMzs-30" value="返回" style="rounded=0;whiteSpace=wrap;html=1;strokeColor=#b46504;align=center;verticalAlign=middle;fontFamily=Helvetica;fontSize=16;fillColor=#fad7ac;" parent="1" vertex="1">
          <mxGeometry x="425" y="1410" width="110" height="30" as="geometry" />
        </mxCell>
        <mxCell id="2qkLxTigW8_xTqNTsMzs-38" style="edgeStyle=orthogonalEdgeStyle;rounded=0;orthogonalLoop=1;jettySize=auto;html=1;entryX=0.5;entryY=0;entryDx=0;entryDy=0;fontFamily=Helvetica;fontSize=16;fontColor=default;" parent="1" source="2qkLxTigW8_xTqNTsMzs-31" target="2qkLxTigW8_xTqNTsMzs-33" edge="1">
          <mxGeometry relative="1" as="geometry" />
        </mxCell>
        <mxCell id="2qkLxTigW8_xTqNTsMzs-31" value="异常" style="rounded=0;whiteSpace=wrap;html=1;strokeColor=#b46504;align=center;verticalAlign=middle;fontFamily=Helvetica;fontSize=16;fillColor=#fad7ac;" parent="1" vertex="1">
          <mxGeometry x="595" y="1410" width="110" height="30" as="geometry" />
        </mxCell>
        <mxCell id="2qkLxTigW8_xTqNTsMzs-33" value="后置" style="rounded=0;whiteSpace=wrap;html=1;strokeColor=#b46504;align=center;verticalAlign=middle;fontFamily=Helvetica;fontSize=16;fillColor=#fad7ac;" parent="1" vertex="1">
          <mxGeometry x="515" y="1490" width="110" height="30" as="geometry" />
        </mxCell>
        <mxCell id="2qkLxTigW8_xTqNTsMzs-40" value="" style="shape=image;verticalLabelPosition=bottom;labelBackgroundColor=default;verticalAlign=top;aspect=fixed;imageAspect=0;image=data:image/png,iVBORw0KGgoAAAANSUhEUgAAAcgAAADaCAIAAACtqkWZAAAgAElEQVR4Ae19bYxd1ZXlVSmyhbCwbGTEh2xkg2yIFMYRTfiQsU0PiA4BhmamQzNB4I6SdPjIVEI3mEEBy5NMSKD5iBNwaKCnIZpAExw040wcEioEwbRDDCGh07EHCDGMgXFD7LRt/AHGb/TqVK23au9zzrvvvvfs96pW/Sivs/ba++yz7r3bz+VXVUVNH3JADsgBOdBRB4qOVlMxOSAH5IAcqGmw6iaQA3JADnTYAQ3WDhuqcnJADsgBDVbdA3JADsiBDjvQ4cFaFB0u2OHjNivXs/2nGovyRbmPZmYoLgfkQEUHys7B6KPq94w+515Wq9WiBVNktEI3SPRfphPWpE7km+QsYC/zDHrjUFOSBSnMBYXlgBxo34HqgzW6t3l0MTgAolmB5NyMrKsh7oFxtEMIAsASHXoGdWBIAEjJAF/NM6n6Zrvym2b6UUgOyIGUAxUHa7Kc+1IAP/yMfYV81Ou7wXAPjMNehglLkABozDMc4mEH3gDWNMUml5eZTlgmLAfkQEccqDJYMxv7B5gZxqZIJmSU3Vj6mRX+aW/2Mk2GJUhfBCFTJyxZHxVUJrlyBleur0Q5IAfyDnR+sOJJDhvzcGGMKPRRkO++41HTIS8Zc/PoISpA1AM+r48yw8pWdwl1fBbXF5YDcqCzDrQ8WKPb85NvBPxIMw4yMAD8UpFJU7Yby3AKrswNMObmwQOggmcQQgW/qdGwIYxRHMAk8kUx2Ci1lANyoLMOdGawoif/kDPDOKSAAYjODtTvKsD0wS7Rrnw0yJDOAOIogDIaBRltAyQA9AG0ypt0LeWAHKjsQA8NVkwZTASAksfbteX1Tfyxedt7JTOH3/6Fmc77BswMSoI0GvAoiBQDcGTDmyVkAYQodgHIZ3ERo9RSDsiBzjrQrcGKpx0gOmUQBWAZk2WOPTQ4ncdHsXDFxjJpw5qwF38OqZ5BSbRnNIaH3gN060PMoGDUHI6mssrwrBGWA3KgHQdaHqypxzg0EaKsSWHW87xgzLllDvn2+ieH+GPdxp1l0kZfrvLWnJdqA68fg4BlCHEdgzFVOdFowpIFwB6YXK5vsFFqKQfkQGcd6PxgxQPv5xSHwjHARJ98RDt75ky16I5REqdDFAChzEZBg1OXV2IXD0wRCEryRqalHJADlR2oMlhTT6wfKEZplqznEDBA5eO1muh3DIznufmwi9GYpekEIzUAEzVLLsU4ui9yzRa8hEZADsiBbjhQcbD6x9s35zUZhkPAAL54lxizIy8Zh90NE5ZMMuaGecZ1dbDypsCpriAQkANyoE0Hqg/W/PPJ0YCZQdN+xBgGyv0DuEnGYXfD+KVh8O99bt4csPxgDcV5C89gx+gunuTGhOWAHOiUA2UHa0v78cMfEj2T58tEW2qppBijqkzDRmOWJXcsI0NlAGR5BiEBOSAHDpQDXRmsB+ow2lcOyAE50AsOaLD2wlVQD3JADowrBzRYx9Xl1GHkgBzoBQc0WHvhKqgHOSAHxpUDGqzj6nLqMHJADvSCAxqsvXAV1IMckAPjygEN1nF1OXUYOSAHesEBDdZeuArqQQ7IgXHlgAbruLqcOowckAO94IAGay9cBfUgB+TAuHJAg3VcXU4dRg7IgV5wQIO1F66CepADcmBcOaDBOq4upw4jB+RALzjQ4cE6wX/YUh8df/eWNzbv2NsLt2Cqh6iZUTJVoSW+pcpe7JnyuzfNbSoov1ebyj3/+v8av67z9yV/81Gbe7aV/t72zY2G39qxr61iLSSXHaz+R3lGL3aUjLYTLZgioxW6QaYaKHmuMrLoFi2dpf0KtQ0rTp1cDMwafGJXSzvXxa3uHtV70vcRNTNK+txWGS7L2NRBKAN8ij8s0oPYLE0F/7sqvKAjTNM+a7Xab24+CbJJn/1BR/btapFNd5+NhouLHtrhNmtECTlVy0T1wRrdim8R6rMBo1mB5NyMrKuhVA8p3jRTXtZwZBiZOvmlyW226fPL5hVTrvrRmJqvfufjc6YevuCrz707hi65aLGBkaq+T89wA9FolOSsCtjX9AzKhhB/DqFMSlOByfX2Rhm01Cngd/GVhwfrn3zl8frv7Hzin/9lrOC9TT+8fsHwL0r+d/ebUG3P79Z8Zcni4w6bctAhM+ef+7m/featTr14HK68aN5hU6Ye9aHT/+y6h/7pD1x512vPDv9+0Qc/d0IRHazR1wpjz1VlVXGwprYyt4j5y9ZHuU4+ysru4VQPnvd3YYbxDRuxF2SYFnNjgzVTvVyoxR7qRaMeZnZrVZ8plQmZg/Ayn2WinOg7zx8/quf6TQUsroybHmH0FeuS1e/5TbauW3Hh0QPFEX904uyisIN1y2OfnVMURyy64ivfuOv2L150wpTioFNu+dUeX6VlZvtTVx9XfGDWWYNfu/Ou26/70+MOKg5ecMc/+/42rliYHKx+trbchkuoMlhdkQbh7wBmGDdyhlEmZJRdXabaSPGmmZKykMX3samTX7aY2JXBau7FfMM4r5FF7eLTBYws6AEQah80rekbQ3ucyxhdmdzAQwkAvQFNBUZfbclNpioMv2KNDNbN377woGL66X+9+tVX7zvbDdbXvnVWUfzRTZikv//+J48spv3l/2p/stb/pT9w2u0bRibpvk33nzulmPGfHneTtclgrXA/pywKfOcHKy7PyAZFYwt/f0CcAvnuOx71HfpTZDZNpUdT+MhRQYpsmrjt198ePOfDM6cfeuyiT937/NPLj6cvBTz/pXmN/CmDQ7TJ+z9bOrs46OKHtxH3yjcWFcWZ92wiahQ2ytAlHg1G/vTmeAZpCHkQNOCR0irg/jPYlA378mfzajTaGJPAHmCvTD8hBGUHAW+aKpsarBv/7orPPfxi/T+z3owM1ie+MKOYt+z5RtE9jy75QLHgjlcaTEW07o4Lzr7s715qZA8P0LPvfrPBBNTzg9U2PLzOXBLcPeb+C3UQBWAZk9F9O06mdkzxpoGSMmTBNzBlQJOs7Y9fMauYNPucL9x818rbrjn3jHM/+kEarG89+8j9wx/LL5hRjB2stb1PXTOrmLJk9Tvo4o36S40z7nwNxFjQpBMnHktEvjgAAZwMABsZAH07AHuhiGdCCLwBWPLdm6oGsQdIMQBKw3d2CW8zZVODde/e0XeYxAbrj66aUpx08/+hup6hYDvwFzfOKyZd8oh7v0LzwRquXTChnQ5CbuPlZL5WGdOb3lX+/gADwEWYzLfXqSiO6UF0Cy8zTDQLJMRgyoB81s5HlwwU8774zMg/s/ZuuPWUARqs2GDdsjl2sNbe/enVRxTTrnxs94jqrQfOGygWrvgtkgzId8J3KpQZwMVx6T2ADCEwFYApgiUAajLjMRiAaGL09vYpyA2gqcDoqy1xaTLpqcHaSMkP1vd2bNv5fq1W69Jg3fb44OzikE88sqXRzwiawIMV1xW3EYCzKU7s2vJ64z1rmzZt2rzNfaklngg2tWOKR2I1gCO3lJ7PevnrpxfFxasaf2WvvfaosoO1tmfoqsOKIz//k+Db1ocumlR85PYXk93lOzFp3kPPIAUhAIQ6CLh4OAsX52hTPoh9iuFZAAzQzl9F3GE1XOZqtjdYX75jwQeKQy79H9u7M1g3r/nLeQNTzljx4uirZ/JhvAxW3CsA/Hc1DowoAMuYREoGDA0Ov9cDN8jCFRsz6lgotWOKNzVKypCFTsGUAfksd+sn/vMq9oq1Vtuz5vJDi6OvXVt/VbFj1aVTihO/tiHdU74Tk+fN8UxIAQ8QnTi+PutN1CxD59iOEw3GEodlgLJBBjEqZwQQA0AMEC2LKAM+EfPlMc6VSXF3l9NmX7Hu2PTLZ9f/y55uvGLd8YubFk8tZl+yalP93nUfPT9YMzcBZiJrUjicHFEAFGHgbIoTb69/cvg9a6Of1m1svG6LZ1iW2+BYig8ajqYwV0NWmVu51UR367c0WGvvfP8zU4u5y5/bV9u15tPTivk3veAbqNY/O4MKmeLmBjDpZhnEnkzVj/JlZhNvwdh0m6rPPNIBOGoKsoYxUso0D3EU4G6M1g8p7u5ylbKDFeoOfylgz8v/7d8fVcz4k2++0Pj/Aew1DJoP1jLHH1szt2r5a6wZ0/3NbcRmybcOnwoygNwJOhpL7RjlQQLwiUJfHDKd8pFNKL/MJ750x4LqXwqov05dveSQ+jzdMzQ4ozjuy79M9pJvw6d5KzzDWSaaX3JiBRzOwolmuxAyZH7J1fLppg7Ehg9LQ/pdKjNlLmi1wRp/V0Dr/6CMH23fm6s/e/zAlFOX/+PWuKDO9sNgzVxaE8oveQyxEhgg7VeHI6kdozxIAO4GJICJlrmPOQWYE33xnd+7zPzn1clF6a+x1vfY/sglBxeLVnz3xrnF3Bue4+9iQQfuG1spEoe+T776PifoOYtxNNcPR1/WM9EssxeyWGw0YWlIJEYbRtRnpap5JRfJRCHLgPx9FRKrDVb7PtYt9fexzrjysfbfx1qr/eHpG049eNKHBh/bnLhVQ+NNBmuZs2es86Eqr1j59vIVwfjLnGE4BAyAmt0GqR2jPEgAbg8kAKLmKnoBlFHQJH37jy+fVUyac87Vt6xcedvS8xefufjYxmDdvG7k3Vb3199uNfns68J7r+7/4frGv6G2Pnzx5IH5808ojrl++GutrokmDTh9aqykDs48MEAob5ZhC0/GeslxZe7tqCZsnWogxfuzcHFkAWSOyYm5E6ZjoQJ/9trUYP3XXz16d/i45bIPFsW/+Ytbh1f/8Ozvh2sMf+fVwBGLrrjpmyvvCN95ddqt/2Tn6tPXziyKuf/lF37bJPPmP/z5jKI48vwb7xu5kYf/+M7/ft1m5AYrH7l9G8PO1QcrX2x7irHfvxiUUb0/kmF85a4yZndemn3NcVgJbFLCElEGUWWK5ERgFg9/g8D8mdOmzz7t0jt//gT/rIB1y+j7A5BcFB+7j95SveXBCycVRTFz6dOR/16lpAbk3T02XkEQ5aMkBkpjy3LflYC98gBl8zK0EQDE3DPjIPCMSUwJAh+NhoZRpyMAJjAwlVODdeNdf8xZo3j+zb8ZKbD7dz/4r5ctmjfj4IOnzTrxvMF7fv62e4E5/KbpqZ/9kZ23poUxyxdumj+6F/05ffDJMarclwIorQFtduvrsoO1pcr+VvBMKJjiy0RbaqmkONVPii9ZdiLLMtZlQt4xIzZLr2/KNB6jcjM66Lls6MF3wgxjzgXOCPyOyDpQYHiw/tnfvzr8tsbO/tjA9x+/clpRXPCAfw9qO4cd/bGBz3zp5NzPCmhni2huVwZrdCeRckAO9LsDw4N15K+kDv/YwJe/fkpRnPw3mXf3VTGv6Y8NrFK0RI4GawmTJJEDcmDYge2v/Gz0zYz+xwa25dHu1Z+aVBx+zVPRd6FWrzz6YwOHu/7VG5GvbVWvncvUYM25o5gckANyoIIDGqwVTFOKHJADciDngAZrzh3F5IAckAMVHNBgrWCaUuSAHJADOQc0WHPuKCYH5IAcqOCABmsF05QiB+SAHMg5oMGac0cxOSAH5EAFBzRYK5imFDkgB+RAzgEN1pw7iskBOSAHKjigwVrBNKXIATkgB3IOaLDm3FFMDsgBOVDBgQ4P1syP6mnaXFdzfXHP+A7LaHyWGDkgBya4A8nByj9ULYqjxvEkKp+FUpwO0oCoJkpyohd4hvUBQ1PhLL6aGDkgByaIA7nBmrEAE8doUryRpZYl073MM2YLL/BM0xQj0FIOyAE5EHXggA3W6GvAFGla9zPRM22mNC1o6mspB+SAHIADnRmsfiBig5KgzCAzGr8pGGwKBgC/XQOMKcu/dcOHUFlADsgBOZByIDdYefR4HK2ISeT1YPKJ0ShI1AcTQIqHzAvAAEAMkAlBIyAH5IAcMA7kBquR8jI6ccLoZFnAUbGRldHwa8lW0319MACpmvgrwQOToqUckANyoD6pUi6kxk3QR6OYO6ZmVOw1SAcwGix9Qc9AHEAQsAwYgFNCD8xwHc+LkQNyQA7AgY4NVp5cjPEyMzq/Gn2435SZ0WPyZgAqB8CDMtoe643Ah5gRlgNyQA4YB3KDNTO2/NTjYcQYg5WBaSIa8luErCgfJbELT1UUQQoAQgagTrRPjgrLATkgB+qDIuWCGTdGZqJYesDDCFFTjTUIeTEGPTQBeCUEGKleAwYAWZmyKbHJ1VIOyIGJ7EBnBiscxNwBMEOTeZ8FxmRl+GhB1gdsZGHJn5umROv4LDFyQA7Iga4M1ugUC16bUKukGbimmlny1TWhsPSfMymZVkeydv/63k+eufD8pWte5zKjuHvR0R30pxyQAz3iQFcGqzmbGWolo6ks8ABcMEqWGcc+0TOmDu9bx2uvP2r4Sw9n373JhroajWwmSg7IgQPpQG6w4muaURDt2gyjsDQkJ/pQyZRoSyD9FtgIwGg8b5iwNCQXqf3hyetPPWL6MRfcs/69MXxYdC8a2UyUHJADB9KB3GDN9JWaL573DMqmQikeiQGkZJ4HA2BKRV+KerFnfB0xckAOyIHkYJU1ckAOyAE5UM0BDdZqvilLDsgBOZB0QIM1aY0CckAOyIFqDmiwVvNNWXJADsiBpAMarElrFJADckAOVHNAg7Wab8qSA3JADiQd0GBNWqOAHJADcqCaAxqs1XxTlhyQA3Ig6YAGa9IaBeSAHJAD1RzQYK3mm7LkgByQA0kHNFiT1iggB+SAHKjmgAZrNd+UJQfkgBxIOqDBmrRGATkgB+RANQc6PFgn+M9/6qPj797yxuYde6vdNJ3NOuCmmQbMsrOHVbUJ4kDZwYofdcrAe1T+puQ6TbHfqEtMppMyO5Y5fnSLMsWhab9CbcOKUycXA7MGn9iFqmVBhd1TtnApsz2Hotjo21ma9syyncrKnbAOVB+sUcv4pmz1eeDcaPH9QKZ6SPGmpfIyY46pk1+a3GabPr9sXjHlqh+Nqfnqdz4+Z+rhC7763Ltj6JKLFhuoV0WTnJvZDvqoJh+NpmRIbsnjTGLz0NDgFFtxkrkUzYtI0YcOVBysqZP6O54Zxr5CPur13WBSPXjePi/ZtW/VyL0gw7SYGxusmerlQi32MGawltnBG85Z+Sgrm2JfyjNNiyQF9cF6/F/ccT99PPD0/03KFRg3DlQZrJnD+5uSGcamSCZklF1dptpI8aaZkrKQxbPJ1MkvW0zsymANL0LRSb5hjpa0CDJsEUAohShXroZ9Kc9Uq1zPqg/WxStfq15AmX3qQOcHK56E4AjfpowRhT4K9rOtvkP0WaaTVHo0l88bFaTIponbfv3twXM+PHP6occu+tS9zz+9/Hj6UsDzX5rXyJ8yOESbvP+zpbOLgy5+eBtxr3xjUVGceU/styM2yhRl7yIzjjMV4CSA+XoC9VgdhgZCPjcDXL10yKwP1oV3bWy3jPL7zoGyj0T+VkOUH4PgBTOMTZRDwAD7zdbUjineNFZShiz4BqYMaJK1/fErZhWTZp/zhZvvWnnbNeeece5HP0iD9a1nHwn/Ll1+wYxi7GCt7X3qmlnFlCWr30EXb3zrrKI4487US64mnQx/adVoohZ5EgzAfhisOHYAvLUJlV3WB+tJX167adOmTZu37tlXNk26vnegM4MVNvh7kRnGIQUMQDeeH7TXFGAKeBDN9TLDRLNAQgymDMhn7Xx0yUAx74vP7Aml9m649ZQBGqzYYN2yOXaw1t796dVHFNOufGz3iOqtB84bKBau+C2SDMh3wmJc3wCw5Mud0YcQsgA4pVVsOsFZGLRa0+rrgxUfH5h23Hk3rP5t62/EsFW17n0Hemiw4gbEYwNQ0sddW16vvzbAx+Ztsd9DnSuW2jHF52qViOHIJbQNST7r5a+fXhQXr9oJ/dprjyo7WGt7hq46rDjy8z8Jvm196KJJxUdufxGlLMh3wmoYaACWLOZpywJgAJNVfokKHqAIQmBaBm+v/+lQ+Hj8B6tW/tUfH1EMnPiVX438nddyNSX0jwPdGqy4KQH4aYE/iAKwjEmkZMDQ4HQ86nWwcEWrX91K7ZjiTTMlZchCt2DKgHzWb24+qSiWrG78lZL4z6vYK9Zabc+ayw8tjr527fu1Wm3HqkunFCd+bUO6p3wnnAdnAPhCszJgyABYzyRyQzNYlgQohbMw8EWq7TJSZ+ujn5heHP2f/9GXFTPOHGh5sOJGjBoRoqxJ4ZCOKEDT5ye6byDfXv/kyOuD8Me6jY3XbZk0CnEbRDfeLcQkMGelMMQA+QcYMg/yie0N1to73//M1GLu8uf21Xat+fS0Yv5NL/gGApNvw2TBFgOwzOj9RtGsIDN1mi5RCgApngk3Z5RHVha89s3FRfHxB3dkRQqOAwc6P1j5tmPMExPGQcAPD5NQ7h+Arc12UR4kgD8jh3xNnNqE8ktkRYu/dMeC6l8KqL9OXb3kkPo83TM0OKM47su/TPaSb8OkhVbRMIB3LCSywJRKpXhZGQYb8XGAy1RIa/atW7nkE3/13Vcbit/Vv07zH/47v++iERQaRw5UGay4F70PJpRf8hPCSmAAv1GXmNSOUR4kAHcFEsBE8fRGBSw2mBN97s7vXWb+8+rkovTXWOs7bX/kkoOLRSu+e+PcYu4NzyX+Jzvfg2kYFzp063suw3BNrw9bRHlO9BgpANB4ptVd1t/ykWLSv135u/oXVmq12r5Nf/+xg4vZ16/FFgLj1YGKgzV6zxmPvCbDcAgYwFTu3jK1Y5QHCcCNgQRA1EwlL4AyCpqkb//x5bOKSXPOufqWlStvW3r+4jMXH9sYrJvXjbzb6v76260mn33dyPcE/XB94z1WWx++ePLA/PknFMdcP/y1VtdEkwZiesxWF4wTfgvD+LQg8HyegfkA0Hum1cFa27zqPx5eTD723L/+m7tW3rr0gnkHFVPP+tuXR+YsNhIYfw5UH6zR2w4GcTRgZlhmHhizhHL/ALM7L00D5jisBDYpYYkog6gyRXIiMIuHv0Fg/sxp02efdumdP3+Cf1bAumX0/QFILoqP3fdmo8KWBy+cVBTFzKVPR378FSU1YCPXITaqkRBDnMpZzAecj3p9hok1YrlMetPQjpf+5/JPLD5h1vTpMz+06M9vXLVhe9MUCcaBA2UHa0tH9fe9Z0LBFF8m2lJLJcWpflJ8ybKS9awDurI9e2n6urGuDNa+dkTNywE5IAfadECDtU0DlS4H5IAcsA5osFpHtJYDckAOtOmABmubBipdDsgBOWAd0GC1jmgtB+SAHGjTAQ3WNg1UuhyQA3LAOqDBah3RWg7IATnQpgMarG0aqHQ5IAfkgHVAg9U6orUckANyoE0HNFjbNFDpckAOyAHrgAardURrOSAH5ECbDmiwtmmg0uWAHJAD1gENVuuI1nJADsiBNh3o8GCd4D8rqI+Ov3vLG5t3RH4qYJv3U6vpUcfsj+1LrFvdS3o5sN8cKDtYo/e27zL6nHgZfmBwtKwnoxW6QfqtwZTZrszxUZBBmeLQcCIwoqXAhhWnTi4GZg0+0frvYsaODEptSiLO9aYxUwZTYUE50BMOVB+s0fbNY2CeH4769HzU67vBpHpI8aaH8jLjjKmTX5rcZpvGfkvrq9/5+Jyphy/46nPv5reKR1tsoF7EpMTrjrJGnFqOyvWnHOg5ByoO1tQ5/EPODGNfIR/1+m4wqR48n3rao7xv1ci8IMO0mBsbrJnq5UIt9tDk19w23dP73zRFAjlwAB2oMlgz7foHgBnGpkgmZJRdXabaSPGmmZKykMWzydTJL1tM7MpgNS9C8w0HcVMNBHzADIZeQA70mgOdH6x4EsJRedYwRhT6KNjPfvkO0WeZTlLp0Vw+b1SQIpsmDv/Oqw/PnH7osYs+de/zTy8/vvHLBGvPf4l+6dWUwSHa5P2fLZ1dHHTxw/zLmV/5xqKiOPOeTSQbhU3bGBXW/2RxCrPe4JaMNblayoH970DLgzXaIj8qRsCPBOMgAwPAr26YNGW7tEztmOJNGyVlyIJvYMqAJlnbH79iVjFp9jlfuPmulbddc+4Z5370gzRY33p25Ne01n9L69jBWtv71DWziilLVjd+Yesb3zqrKM6487VEW006oaxWncnPYiosKAd60YHODFaczD8/zDAOKWAADvhgxbAwAGdkYDR+yWKPofehDJPP2vnokoFi3hef2RMq7N1w6ykDNFhRd92yOXaw1t796dVHFNOufGz3iOqtB84bKBau+C2SDMh3wmK+vsxncColxWdKKSQH9rMDPTRY8ZTiyQEoacquLa9v4o/N294rmTkqS+2Y4kfzKv6JI7eUn896+eunF8XFq3ai5Nprjyo7WGt7hq46rDjy8z8Jvm196KJJxUdufxGlLMh3wuoKBqK4B1xZWA70oAPdGqx4kAD4pSiMQBSAZUwiJQOGBqePeQgXrtiYUcdCqR1TvKlRUoYsdAumDMhn/ebmk4piyerGXymJ/7yKvWKt1fasufzQ4uhr175fq9V2rLp0SnHi1zake8p3wnnBGegNYCVwyswUj0QBOXDAHWh5sOZvazw/OBjrGQcBGIB2Buvb658c4o91Gxuv29BQFnAbLEzx5hTcvMFcDVmYLz6aYZAV7aq9wVp75/ufmVrMXf7cvtquNZ+eVsy/6YVUJ/k2TFZoNdpwlAzu8RaMTXEt5UCvOdD5wcrPCePooIGAHxsm97Nf2NrsG+VBAvgzcsjXxKlNKL9EVrT4S3csqP6lgPrr1NVLDqnP0z1DgzOK4778y2Qv+TY4DX0CRKNMeicRjRZBVEAO9IIDVQZr5s42ofySHx5WAgPsN6dSO0Z5kADcJ0gAEy0/mDgxmJbJ3fm9y8x/Xp1clP4aa32n7Y9ccnCxaMV3b5xbzL3huX1m85ElNxA9IKdBABCNMumPyTsa5chy96/v/eSZC89fuub1WLydaKyeODmQcaDiYI0+IWYbr8kwHAIGMJW7t0ztGOVBAnBjIAEQ5RkRMEJlQJP07T6giLkAAAqHSURBVD++fFYxac45V9+ycuVtS89ffObiYxuDdfO6kXdb3V9/u9Xks6+7P3z8cH3jPVZbH7548sD8+ScUx1w//LVW11OTBsbq+fiMoYqS/JculAGk9LW11x813NnZd8fedttO1HSgpRxo5kD1wZq8v4e35GjAzKAr/4gaBsr9A8zuvDQNmOOwEtikhCWiDKLKFMmJwCwe/gaB+TOnTZ992qV3/vyJZfMag3XdMvr+ACQXxcfue7NRYcuDF04qimLm0qcjP/6KkhqwkTsWlXGppKaxGaExu/3hyetPPWL6MRfcs77xP3cNQTvRRhUhOVDKgbKDtVSxUZF5VKq8+hgu5euM7tCtP1M7pvhu9TFO60ZtjJLj1AAda6I40JXBOlHM0znlgByQAzEHNFhjroiTA3JADrThgAZrG+YpVQ7IATkQc0CDNeaKODkgB+RAGw5osLZhnlLlgByQAzEHNFhjroiTA3JADrThgAZrG+YpVQ7IATkQc0CDNeaKODkgB+RAGw5osLZhnlLlgByQAzEHNFhjroiTA3JADrThgAZrG+b1WGr4Hvoea0rtyIGJ6IAG6/i56hqs4+da6iR97oAGa59fQGpfg5XMEJQDB9KBDg/Wfv9JRf3YP3rWYD2QT5L2lgPkQNnBGh5a85nqjEA85D5kGFMqvzS53Vui/1Q/vDVrUj/xnvUBcxawlzGDrpg0O2KZ2QXbpQqa+lrKATlQzYHqgzW6Hz+x/BgDR7MCybkZWVdD3APjaIcQBIAlOvQM6sCQAJCSAijFiUbMpaA3mrDMR6MpIuWAHCjvQMXBmtrAP7HMMPYV8lGv7wbDPTAOexkmLEECoDHPcCgzIiEDQCkAhAA0WGGFgBw4sA5UGayZjv1jzwxjUyQTMspuLHnGYTz5lgwTliB9EYSiPbM+KoiSmZronH9lA++CXIDoFiLlgBxo04HOD1Y8yaEzfoYZIwp9FLR5vFbTTYe8ZMzNY4uoAFEP+Lw+mmI4i7H/GmuowF0BA6R2ES8H5EA7DrQ8WKObmSecNfwMMw4aMADm1RaX6jYOp+Bdol1BEKLQABgBlh7ANx8KDAQoDsApgeT+IQM4gMZyq8JyYCI40JnBCqf4MQ4kM4xNlEPAAKjfVYAphl24AcbR5pHOAKWiAMpolEnsHgCWZlyC98AoubiwHJADnXWghwYrpkx0KJQ59q4tr2/ij83bYr8HOV4pbMqfg84zyDd9miWnI8UAHNnwfumL+8ZCtZDr9Rqs3lUxcqBLDnRrsOYfbBwmL0MU+jwYGpyOUVUHC1dszCdQNOzFn0PQM0hCe0ZjeOg9QLc+ZJhoTZBBrMFqTNNSDhwoB1oerOZhNn2HKGtSOCQiCtDOC6u31z85xB/rNu40/SWW2B2AhVEy9BlC/BnnSmWhMqZqU2XUk/ymqMm7MIk2BOSAHOi4A50frHh6eRyEvjlkmB55/n2H/hS4BkGMFIBMCnKDBqdmPorL7BWqhXRuxhfMR71ejByQAy05UGWwZh5LE8oveQCxEhigpSO1I/Y7Bsbz3HzY0WjM0nSFkcrT0Gh4yW34yogiBMBFgPNRyATkgByo5kDFwVrmyfSaDMMhYIBqZ6uQZXbkJeNQ2TBhySRjbsZM1ZQMKb4yQgx4RvstDMOJwnJADnTWgeqDNT8OOJqZC+Zp98vOnrZpNd82p3A0+orVCPDvfVOkpWNyTZ/ombAXZ/HuZaJeL0YOyIGWHCg7WFsrWtiyqec8xYft8tGWWiopDjuGaRVN4ZYY+zkbTe8qmWm7q/uquByQA8YBOwFNWMs+ckCDtY8ullod3w5osI6f66vBOn6upU7S5w5osPb5BaT2NVjJDEE5cCAd0GA9kO53dm8N1s76qWpyoLIDGqyVreu5RA3WnrskamiiOqDBOlGvvM4tB+RA1xzQYO2atSosB+TARHVAg3WiXnmdWw7Iga45oMHaNWtVWA7IgYnqgAbrRL3yOrcckANdc0CDtWvWqrAckAMT1QEN1ol65XVuOSAHuuaABmvXrFVhOSAHJqoDHR6s5gc+9Z2rfdd/tOHwnQJNP/fd1VHDcqBfHCg7WKNPqT9k9Dn3Mvyg0mhZT0YrdINE/76HwPCmrEmdiPUBcxawl+UZJAZgxDiF+WGGKd6kaykH5ECbDlQfrNGNzaNrnn+O+vR81Ou7wXAPjMNehsEyACzRmGdQxziDlBRoSW/EqWVqL/FyQA606UDFwZra1Y8SZhj7Cvmo13eD4R4Yh70ME5YgAdCYZzjE8w58CmRKpVKYbzOdSwnLATnQ1IEqgzVT1D/AzDA2RTIho+zGkmdcwOYf0WFT02RYgvRFEIr2zPqogMl8KVamvijB2+GMJlFLOSAHOuJA5wcrHuDQH08ExohCHwUdOWT5IqZDXjLm5lE8KkDUAz6vjxqGxSlsUnjpe+OosByQA511oOXBGt2eH3Uj4EeacZCBAeCXikyast1YhlNwZW6AMTcPHgAVPIMQKvhNjQbKKJ8h+aIYnMlSSA7IgfYd6MxgRR9+lDDDOKSAATjggzXaCXflDxtSzPAqMzGRgpopwF2lNIZPpaR4k66lHJADlR3oocGKKYMnH6Dk8XZteX0Tf2ze9l7JzFot7MWfQ6pnUBLtGQ346DhGeoiWmb9N63BNYPbTYGgE5IAc6IYD3RqsGC4A0emAKADLmCxz+KHB6WMmyMIVG8ukDWvCXvw5pHoGJdGe0Rgeeg/QrQ8ZBlsghYERhyXaMNEUb2RaygE5UNmBlgdr/rHE84+GWM84CMAAtDNY317/5BB/rNu4E31kAXYHYHmUDH2GEH/GuVJZqNx0MkIJT6I1oyTa412AubKwHJADHXeg84OVn3PGmA58BgjwzAcQNIhySldxdMcoieMgCoBQvlU+clNlEPAWSImSmR5SehQUkANyoE0HqgzWzJNpQvklP/ysBAZo85Dl0/2OgfE8Nx/qG41Zmh54quaVvFFUGSVDltkFS9OMlnJADnTWgYqDNfUwc3Nek2E4BAzAZbuKzY68ZBx6MExYMsmY28aAA+CowVyEMWRRkscxlAGk9EampRyQA5UdqD5Y888nRwNmBu1isqQAlPsHcJOMw+6G8UvD4GUjNx89KQsYm4LR3JKaaC7vJSwH5ECnHCg7WFvazzzqlV89+TottVFBHHYMMyiazi0xzpwxWqcaaXYMRaJktfrKkgNyoCMOdGWwdqQzFZEDckAO9KkDGqx9euHUthyQA73rgAZr714bdSYH5ECfOqDB2qcXTm3LATnQuw5osPbutVFnckAO9KkDGqx9euHUthyQA73rgAZr714bdSYH5ECfOqDB2qcXTm3LATnQuw5osPbutVFnckAO9KkDGqx9euHUthyQA73rgAZr714bdSYH5ECfOqDB2qcXTm3LATnQuw5osPbutVFnckAO9KkDGqx9euHUthyQA73rgAZr714bdSYH5ECfOqDB2qcXTm3LATnQuw5osPbutVFnckAO9KkDGqx9euHUthyQA73rgAZr714bdSYH5ECfOqDB2qcXTm3LATnQuw5osPbutVFnckAO9KkDGqx9euHUthyQA73rgAZr714bdSYH5ECfOvD/AXRl2XTEHsXgAAAAAElFTkSuQmCC;" parent="1" vertex="1">
          <mxGeometry x="769" y="900" width="456" height="218" as="geometry" />
        </mxCell>
        <mxCell id="2qkLxTigW8_xTqNTsMzs-41" value="权限" style="text;html=1;align=center;verticalAlign=middle;resizable=0;points=[];autosize=1;strokeColor=none;fillColor=none;fontFamily=Helvetica;fontSize=16;fontColor=default;" parent="1" vertex="1">
          <mxGeometry x="810" y="1138" width="60" height="30" as="geometry" />
        </mxCell>
      </root>
    </mxGraphModel>
  </diagram>
  <diagram id="yWGNsw8QTyn4kcPX6Epz" name="stu">
    <mxGraphModel dx="2206" dy="1187" grid="1" gridSize="10" guides="1" tooltips="1" connect="1" arrows="1" fold="1" page="1" pageScale="1" pageWidth="827" pageHeight="1169" math="0" shadow="0">
      <root>
        <mxCell id="0" />
        <mxCell id="1" parent="0" />
        <mxCell id="pKm0akWT1I0lHfFCf6pE-6" value="" style="edgeStyle=orthogonalEdgeStyle;rounded=0;orthogonalLoop=1;jettySize=auto;html=1;" edge="1" parent="1" source="pKm0akWT1I0lHfFCf6pE-2" target="pKm0akWT1I0lHfFCf6pE-5">
          <mxGeometry relative="1" as="geometry" />
        </mxCell>
        <mxCell id="pKm0akWT1I0lHfFCf6pE-2" value="组件创建" style="rounded=0;whiteSpace=wrap;html=1;" vertex="1" parent="1">
          <mxGeometry x="-130" y="120" width="100" height="60" as="geometry" />
        </mxCell>
        <mxCell id="pKm0akWT1I0lHfFCf6pE-19" value="" style="edgeStyle=orthogonalEdgeStyle;rounded=0;orthogonalLoop=1;jettySize=auto;html=1;" edge="1" parent="1" source="pKm0akWT1I0lHfFCf6pE-5" target="pKm0akWT1I0lHfFCf6pE-18">
          <mxGeometry relative="1" as="geometry" />
        </mxCell>
        <mxCell id="pKm0akWT1I0lHfFCf6pE-5" value="构造器" style="whiteSpace=wrap;html=1;rounded=0;" vertex="1" parent="1">
          <mxGeometry x="40" y="120" width="120" height="60" as="geometry" />
        </mxCell>
        <mxCell id="pKm0akWT1I0lHfFCf6pE-12" value="" style="edgeStyle=orthogonalEdgeStyle;rounded=0;orthogonalLoop=1;jettySize=auto;html=1;" edge="1" parent="1" source="pKm0akWT1I0lHfFCf6pE-7" target="pKm0akWT1I0lHfFCf6pE-11">
          <mxGeometry relative="1" as="geometry" />
        </mxCell>
        <mxCell id="pKm0akWT1I0lHfFCf6pE-7" value="@Bean&lt;div&gt;initMethod&lt;/div&gt;" style="whiteSpace=wrap;html=1;rounded=0;fillColor=#f5f5f5;fontColor=#333333;strokeColor=#666666;" vertex="1" parent="1">
          <mxGeometry x="710" y="120" width="120" height="60" as="geometry" />
        </mxCell>
        <mxCell id="pKm0akWT1I0lHfFCf6pE-15" value="" style="edgeStyle=orthogonalEdgeStyle;rounded=0;orthogonalLoop=1;jettySize=auto;html=1;" edge="1" parent="1" source="pKm0akWT1I0lHfFCf6pE-9" target="pKm0akWT1I0lHfFCf6pE-14">
          <mxGeometry relative="1" as="geometry" />
        </mxCell>
        <mxCell id="pKm0akWT1I0lHfFCf6pE-9" value="@Bean&lt;div&gt;destoryMehod&lt;/div&gt;" style="whiteSpace=wrap;html=1;rounded=0;fillColor=#f5f5f5;fontColor=#333333;strokeColor=#666666;" vertex="1" parent="1">
          <mxGeometry x="1410" y="120" width="120" height="60" as="geometry" />
        </mxCell>
        <mxCell id="pKm0akWT1I0lHfFCf6pE-31" value="" style="edgeStyle=orthogonalEdgeStyle;rounded=0;orthogonalLoop=1;jettySize=auto;html=1;" edge="1" parent="1" source="pKm0akWT1I0lHfFCf6pE-11" target="pKm0akWT1I0lHfFCf6pE-30">
          <mxGeometry relative="1" as="geometry" />
        </mxCell>
        <mxCell id="pKm0akWT1I0lHfFCf6pE-11" value="组件运行中" style="whiteSpace=wrap;html=1;rounded=0;" vertex="1" parent="1">
          <mxGeometry x="900" y="120" width="120" height="60" as="geometry" />
        </mxCell>
        <mxCell id="pKm0akWT1I0lHfFCf6pE-14" value="IOC销毁" style="whiteSpace=wrap;html=1;rounded=0;" vertex="1" parent="1">
          <mxGeometry x="1580" y="120" width="120" height="60" as="geometry" />
        </mxCell>
        <mxCell id="pKm0akWT1I0lHfFCf6pE-22" style="edgeStyle=orthogonalEdgeStyle;rounded=0;orthogonalLoop=1;jettySize=auto;html=1;entryX=0;entryY=0.5;entryDx=0;entryDy=0;" edge="1" parent="1" source="pKm0akWT1I0lHfFCf6pE-16" target="pKm0akWT1I0lHfFCf6pE-7">
          <mxGeometry relative="1" as="geometry" />
        </mxCell>
        <mxCell id="pKm0akWT1I0lHfFCf6pE-16" value="InitializingBean中 afterPropertiesSet方法." style="whiteSpace=wrap;html=1;rounded=0;fillColor=#dae8fc;strokeColor=#6c8ebf;" vertex="1" parent="1">
          <mxGeometry x="540" y="120" width="130" height="60" as="geometry" />
        </mxCell>
        <mxCell id="pKm0akWT1I0lHfFCf6pE-28" value="" style="edgeStyle=orthogonalEdgeStyle;rounded=0;orthogonalLoop=1;jettySize=auto;html=1;" edge="1" parent="1" source="pKm0akWT1I0lHfFCf6pE-18" target="pKm0akWT1I0lHfFCf6pE-27">
          <mxGeometry relative="1" as="geometry" />
        </mxCell>
        <mxCell id="pKm0akWT1I0lHfFCf6pE-18" value="@Autowired&lt;div&gt;自动注入&lt;/div&gt;" style="whiteSpace=wrap;html=1;rounded=0;" vertex="1" parent="1">
          <mxGeometry x="210" y="120" width="120" height="60" as="geometry" />
        </mxCell>
        <mxCell id="pKm0akWT1I0lHfFCf6pE-26" value="" style="edgeStyle=orthogonalEdgeStyle;rounded=0;orthogonalLoop=1;jettySize=auto;html=1;" edge="1" parent="1" source="pKm0akWT1I0lHfFCf6pE-24" target="pKm0akWT1I0lHfFCf6pE-9">
          <mxGeometry relative="1" as="geometry" />
        </mxCell>
        <mxCell id="pKm0akWT1I0lHfFCf6pE-24" value="DisposableBean中 destroy方法" style="whiteSpace=wrap;html=1;rounded=0;fillColor=#dae8fc;strokeColor=#6c8ebf;" vertex="1" parent="1">
          <mxGeometry x="1230" y="120" width="120" height="60" as="geometry" />
        </mxCell>
        <mxCell id="pKm0akWT1I0lHfFCf6pE-29" style="edgeStyle=orthogonalEdgeStyle;rounded=0;orthogonalLoop=1;jettySize=auto;html=1;" edge="1" parent="1" source="pKm0akWT1I0lHfFCf6pE-27" target="pKm0akWT1I0lHfFCf6pE-16">
          <mxGeometry relative="1" as="geometry" />
        </mxCell>
        <mxCell id="pKm0akWT1I0lHfFCf6pE-27" value="@PostConstruct&lt;div&gt;对应的方法&lt;/div&gt;" style="whiteSpace=wrap;html=1;rounded=0;fillColor=#d5e8d4;strokeColor=#82b366;" vertex="1" parent="1">
          <mxGeometry x="370" y="120" width="120" height="60" as="geometry" />
        </mxCell>
        <mxCell id="pKm0akWT1I0lHfFCf6pE-32" style="edgeStyle=orthogonalEdgeStyle;rounded=0;orthogonalLoop=1;jettySize=auto;html=1;" edge="1" parent="1" source="pKm0akWT1I0lHfFCf6pE-30" target="pKm0akWT1I0lHfFCf6pE-24">
          <mxGeometry relative="1" as="geometry" />
        </mxCell>
        <mxCell id="pKm0akWT1I0lHfFCf6pE-30" value="@PreDestroy&lt;div&gt;对应的方法&lt;/div&gt;" style="whiteSpace=wrap;html=1;rounded=0;fillColor=#d5e8d4;strokeColor=#82b366;" vertex="1" parent="1">
          <mxGeometry x="1070" y="120" width="120" height="60" as="geometry" />
        </mxCell>
        <mxCell id="pKm0akWT1I0lHfFCf6pE-34" style="edgeStyle=orthogonalEdgeStyle;rounded=0;orthogonalLoop=1;jettySize=auto;html=1;shape=flexArrow;fillColor=#f8cecc;" edge="1" parent="1" source="pKm0akWT1I0lHfFCf6pE-33">
          <mxGeometry relative="1" as="geometry">
            <mxPoint x="350" y="150" as="targetPoint" />
          </mxGeometry>
        </mxCell>
        <mxCell id="pKm0akWT1I0lHfFCf6pE-33" value="BeanPostProcessor中&lt;div&gt;postProcess&lt;b&gt;Before&lt;/b&gt;rInitialization&lt;br&gt;&lt;/div&gt;" style="rounded=0;whiteSpace=wrap;html=1;fillColor=#f8cecc;strokeColor=#b85450;" vertex="1" parent="1">
          <mxGeometry x="190" y="340" width="320" height="60" as="geometry" />
        </mxCell>
        <mxCell id="pKm0akWT1I0lHfFCf6pE-35" value="" style="shape=image;verticalLabelPosition=bottom;labelBackgroundColor=default;verticalAlign=top;aspect=fixed;imageAspect=0;image=data:image/png,iVBORw0KGgoAAAANSUhEUgAAAcMAAACfCAIAAAAK3yWxAAAgAElEQVR4Ae1de1BV1f4/wzgwDmdgOIwM6gADOtDPIdPxSYNaKaM91NS00oaraZa3EsxMzdKSrqS3B1q+stc1K1OQNB9p6tWLpYmJkhaPILVjiprkAwUfrN+s/Vhn7b3Xd3P24QDnHL78wVl77e/6ru/6rO/+sPbeh/WxEfxBBBABRAARaBwCtsY1x9aIACKACCACBJkUkwARQAQQgcYigEzaWASxPSKACCACyKSYA4gAIoAINBYBZNLGIojtEQFEABFAJrWQAzabCy6+zFwYK401srGN+yGEcEeuLphbLCACiICPI2B+3Va8k2Kb9M1NeQxFWcmOjF0+Pp4mDY+nRb7MdyrXs7OswNvI1CnXuGmva46HiAAi4FMIIJNamA5Gi/wSUi7rvBgNWFvZkjfANakOPTxEBPwOAQ+Z9PapLTOHdm0fGhTSLmlwxrryOnXg18pzZw67KyYiIrbPuIV7quqVerqefW7F55P6tI+I7vLgrO1O9YTarnk/f9+yMvfni7fc79RIfHxbI0uys7pTrJ4vMBtW4M9iGRFABHwfAc+YtG7L0+GJEz8rqvzjxPFtM3qHPPTxaWmot4rf7B0z/K1dx8pLD3w+uavj8XXnZAiKspLtd4z+99bisl/3vjUsqv2z26+bYXP0jW52zc/kTRLteav+7LezB8VFd38iO88qnxpvzHU1OjbUHQoHzdvwZaExViICiIAPIuAZk178z3DbA6tk9iQ3r1+5cl1+llqZk9puRoEyzMr37wmZvPm2dFSUldwmPa9WKt/cNiWk16JSMzBqL5ys0PycvSKZe6ueOqs5uWfltPs7deiRnp13zI31qfEunrEeK+ju0/mVLN/cWK+rMcMGzyECiIDvIeAZk5KTax6JDu7QPW3Uk1Pnvrfp+CVlYIde6WQLDlVXkyFBtnG5Mntq3lad2Pn+qr1nfAOL6859yyZ0DZ3wdYO3+ozs5MB17MlGw9ezSpOCbG+1lYlDPIUIIALNj4CHTErIzYvlB77N/fS9rGf6tQ8f/UWVFPqhVzrFZmzkVpNnLssPRDVM2vAovXUXD/lRIrhauXPp8wM7dR6UueE38we3Or5jxKerZ3f6jHb5gm7c8ilWqTtk9VhABBAB30fAnEmrVt1vG/Pl3/IwCmZ07PzqQal8pfJgQclfyuiOLewR+ux26aAyJzV0yjbl9VPtXycrq67KRhaZ1Ft38ZCf+stl3y6eMiC+06DMFbtPXVMG0uAHT6CMIhl7ys2N3MrXszJzpesU+VQHCB4iAn6BgDmTkuLs7vb+c7YWl5cUvD+yQ9TTW+T7+IufPxJy1/O5Ryv/OFmyJ3tIePc3i6XR3jqa3TO8/+zNR8rLCtc/190+7FPlWapFJm1q6I68cc/AjOW7TtZY68hIf0beZDWMalmB74xVGu15MywjAoiAXyDQAJOSq8dXTx3cpX1EZEKfsQv3yvfwhJC68tyMIV2iQ4NCHAmp/3ivUFm2ElJT+tWLD3XtGOGI6z1m/nan+vTRx5j0Rh372paVWTIyqdyar+fLJr6ZmVzQHZo0xFOIACLggwg0xKQ+GHLLhcT4joWguxlntMgvOfmyriFrLrRhxlhABBABH0cAmdTHJwjDQwQQAT9AAJnUDyYJQ0QEEAEfRwCZ1McnCMNDBBABP0AAmdQPJglDRAQQAR9HAJnUxycIw0MEEAE/QACZ1A8mCUNEBBABH0cAmdTHJwjDQwQQAT9AAJnUDyYJQ0QEEAEfRwCZ1McnCMNDBBABP0AAmdQPJglDRAQQAR9HAJnUxyeoUeEZ/73VxF2DxuYG7D9fTbpw8xT/v7PGMu9EF5LukFny9XyZGbRUoabiu6UzHntrX0v130z9Vn6WMWXhV0f+Mt+6spmCaaJuzJkUtUUbAfvWZ2wp71QYHUD1RsvG1ZhTBmMo1onR3p0a1lwuGJvoDNw5NHGiO2V+yPqSzdiQ+QKzcatQW5E/++HucY7IuB6jXt18wp19cODpvrj/zUEdEx95Y13xRbc69xGjvdOjVQDH5csbuUuRQfWEkGuVu5dO6dv+rimbTilCxT4yFi+GgUzqRTC1rqBLCKrXtvb4SM1ywae5Tx0rycbCSg/8mDfRnRWEzlXxxiw8xpX8WbnMbISHRnuTmtKc1NBeGbmHSst+ysvoaR+4XPCHUt8cmu4rO/8ZE/34Wqcsz6Nv5cPH16tPO51O548L+tg0TArVq0O5VPDSXWEPfOhUjwPs00MmbW3aopbGe2nto9yFLxUf/OgcIVA9TSnvabLqiIPlK1QvG+gCZq2EZ2VjnQ07NO+ImZkUdB50h3JDuZJFYhI/a66zYfUmkWhPVa9+2DZi9QW5sipv6oA5OxRhx+qDSyfemxQVHhnfa8zrO05L7Gg23YRczn0ipNuC45r7Xeey+2zpi9c93y/WEZU0ZPrGk+qmlETknxRlJd2XOXdYTMeBi/dtybyjXcLwZT/fkIMD0kk7HHYE9Wt6S3piWX8tkyruoHpCyMUvRwb3ySln/QZUwTMmbW3aotbGe/vyGSrA8slYW485e2QpltN/3yIEqifEW5qsNDUhguDrdZwiZzQzYAVjppuc4p2YmDHuMzpnNXJzXZC6hszGvF++lS4q3SFTM2RhGAqUccbzN7SKxY3dmR0Sxi7dVVRaVrh2cnJEeh69XYenmzYrykoOn7pT2wX1Hz947rpDJb/ueXdodNi4XFmXQuyfMmm7Rz4sOrBggKPvK1uOrX86JvoF6YkrlE6QGA/Ur7eZlJT9u3fQU5sD8wbfMyZtbdqilsdLrxDotk5Q7y1NVtqtkIB4QmFXr45K2KGxADVh9awgt2UeWD0rCCNhZ+WCzgnzxgrsDwZkyTtkrYzI8GYMOl0ldwgxKblVV3tDXT/ufzk+Yc4BVyvBdNOT38+K1ZjROur/wY9krcj6PS+0j5v9g+xH7L8oKyk5q5iQA3MSxuVeJRfXDLdN2EzDgNIJEuOB+vU6k55ZOdj22FeXXeAEUMkzJm112qJWtVRphgCXkKjem5qsjDh0Waqr1x0ybuILurLxUNcFMzA6N1qa1MjNjcTHu2U2vB/egNWzSlaQT+kOmT1cAJm0pvjD8X3jI8Ooqm5osC16+l6XEyAN9s2METIpW/PyMhNi/wImHf8NXfCB6eSKSlPSjIvrt0mY9NG1qhKxJga/P/CQSVubtqjV8dK8AC4hUb23NFlptxBB6OrlQ76SlVmBZbc5qfFmwjKrdLOgC0B3yDthp3QRumPD2vLGpmUN47gsbx2c3Tls0Pxvi8voo5yNGQnuMOn+l+PZklN1pfHvYjTIvxmTCiV+ze7uRQzudSZ1Lh9oG7teUclURx0gn+ZMitqi8jRb1lKlzbZNEX8LSlDvLU1W2q2OU/hDlrM8ibCyscDsWYHZsBq+wJ/lyzob6BQz42M2lpmZ8c+G0DOrZAXZg+6QQcf715bpG6eRnymaulW5z949azt943R+9UO2+z9RNM7qd2dGaZhUMN3Ua8nbfYP/sUF5YaV0AzAp5B9kUiidzO7uRUx64ZOh7A3b7V0ZUclZRS5ATi4fIHzjBNXTlofnJoZn7NK8ZXM59POSOZOitqg8vZa1VGmzoqyksGFLCkvpQuXsFVeeCOq9qclqJAi5a75eR086StJZuiKHF7w6D8YemRO5a3YoLOhs5Hj436wVH6owBr5SN2pdW9nSWMn6ovSXk2rvPS3/p7Kyn/Km9rTft0z6FlT9wdkJYWlZO45VlB3a+PqYLtEaJhVMN3V58/tZse2e3Ky50wWYFPIPMimYTvxYuDLQLyFlS/qH9srMLyo9vnPhkMhOMwo4QfOajeltE57dUPoH/UpU1WXlSwOEQPWE3DzyRte2o9f51ZdnOZQaKDbApKgtKuNnVUtVanVm64yB8WFB9AIen8+9sBTVe0+TFeICqF4eIH+WlVmBJZGxxticGfMsxlc2WGZMquM+o0NdPLpDXWy6s7rDBqOiBrUVG2Y93C3W4YjtPuLljZXqN/Mv/PD2Y71iI8JjUp78+LOXkzVMSkTTTQipP7HqAUfSxHXc1/tBRhP7B5kUlPgFxgj2S2or8l4a2rWjIyrpnmc++IkpCEt+bpSseSolxi7ld8oS1zdrxfW3L+x7NTW826sHtMtwICI/rG6ISf1wSK08ZB378IcQMoxTGIXxlrwHXVk2Y835VqxsfpaZsYJsL2xlDI8Z6wLjm5vY8GYsgOYrXDq8+OG4yK6jPj7efH22SE9V22aldoy8+6Vtf6rfcGiRMJq0U2TSJoUXnSMC5ghcc/64Ya9rQWdu7K9nzx/asrO0OnBZlM4LMqm/ZifGjQggAr6DADKp78wFRoIIIAL+igAyqb/OHMaNCCACvoMAMqnvzAVGggggAv6KADKpv84cxo0IIAK+gwAyqe/MBUaCCCAC/ooAMqm/zhzGjQggAr6DADKp78wFRoIIIAL+igAyqb/OHMaNCCACvoMAMqnvzIWfRnLj8LLHH878+rS74Vu1h/x6y09L+Yf6xXq/RMAak+r+u7lJRizY1pPusCD/hEQmpqYvKjjrX/94xuIPjojrMXL2xkq2cY4JgvVntsxMS3QE04EnzeO2MzNp09hTO56z81Os7t9u7rbmuxeT4wctLdFZCeZRtgDsdc0JMdGqlGzd9WNwrK1odJxad4IjHtIW/k9/QXRY5R0EPGdS7/Rv9CLIbMpEoz+qdDqdJ0r+t3RMfPjw/7i9AjJ20Pw1LP6TZQfWTEpue/+qUw0H8dvivm0GLSqko3aeqVZ3HWq4XWMsrl10Op2VK0faes4rcDqd56404i+WYB6thdaQVqU1b6B1o+MEPXMneDLlqrEYOAh4yKRaAChTpC9enzEgztEuMW3aht/ZmutqyRfTHpB25Up98t0fFFVGQoRSnbAWI/XPdqIlvy3uaxslSxjQfcWfW/H5pD7tI6K7PDhru1PdRBbol9RVbnplVM/4SEds95FzXLuiQdKewjip2NmpLTOHdm0fGhTSLmlwxrryBnhOE39xdjdHxi4FQBMNyOLsZPtzqp2KNzAuEAcT/6pLw2dt7jhbyjulXL08vwLNS9catv+SE2oDeB6J0J62E2pnyg5FWpWAn6s6Udf+bK83kX9P4hTjD+KjQkI/GZnylVbK4A72YDYCsw9mi5Vo0FaHgCdMqnMhK3nFDp6X+1NZyf5P0xPtY76UNxC/deRfPcLvnbv1aFnJvpWPxrefvLlaaiuW6oS1GDVMRJwr77MNlbVyi7KS7XeM/vfW4rJf9741LKr9s9Ie5gTqt/6Xt++295mWd6i07HD+C33DUnPkW1JIi1EcJyFQvQEYpcIVf13V/tcHxIzPPy+dAfrdNytG1gOytWlLlYHs9m5vHKUNoHFRoUohDsVv9o4Z/tauY+WlBz6f3NXx+LpzUIhcvZhJRZqXRFrDOis/Gm3jmBSeR7E9IYB2phyTiEmF/RJSf/U8XcE7nc5T+xaktk3I3CWLr4n9W48Twp/OrxAfDlValMlUV8kOzc8SAjEplI1AdkmypqJsYYFgwRMEvMakwz5V5BcOz+8SmblbiqUyJzVk8mZlwXb0X12jXtgj1UNSndJJwd2Wi4nqa53bp/cI6fu2vGQqykpuk55XK7W7uW1KSK9FUj3U758r0myPr1O2r6/em/P8sh+kTcAhLUYoTqheikPwi8YvkWLbNrbI1Ll75L8noAZkzbnKioqKbTMSQ9PXyCLPJy9IY4TGRZkUwKHdjAIloMr37wmZvFlSYheEyFWJmVR9ZqrRvJRb1eaP55lUcSWYR+WM0V6snSmbi5jUrF+6H33Ze2kRXWcWMKECM/8W4oTwp/Nrgo8y7KZiUigboayGsoWFiQVPEPAak7K779J3UmyTvpFiOfRKp+iZkgI3IeTEsvtsT+TKtApIdUqNBJnNmMjeto0tvNuE1ccVFQSXahjtYOf7q/ZKErdQv79kdwt+bocRJlCLEYoTqje6lmpo/KNWlFRUlP2895OJyZ2e3iKvScF+aSvB3T00LnptuJ4YaHCwBYfKy1q7PSTINi5X/qsDxClXi5mUza+mL6mFkRlptWAelW6N9mLtTNncMpPWHV3YLyJlwRFuc3Yz/xbihPCn82uCjzLshpiUmQEFaE0aOEK/wMD9o7plmBSQ6pQgE2Q2Y6LKE2ddgjGSVBLHIC7AoYw3YVKhFiNd3lwsP/Bt7qfvZT3Tr3346C+UdTdc7wqCK2mutMvrxwYN/UR6ZAxKitK2HjOpq2NT/y4zXanZmRTSzpTjssikNYWv9XCkLS9lj+oJMfcvyDcFEAPjQ3mlmV/jXxqGb0P378xQWACZFMhGcPZNIhR2jJXuIOAJkxq+yUEzib+7bzftv1Lf+rshVd8GkuqUGgm0GDWZyo8KyAmoX/nuXn52Ri7uzJ7wjizxBWkxQnFC9XxofFkTf93mySF3v1tJz0P9Sm0FTAqNS7smdfVs6t9lpit5iUkF86h0pGcoSDtTNoe1KvV+CCGXC15Ijh695pT65lFyYe7f/TjpfGmeVqn5rJlfICcbfuPUEM9CSp9QNoKzD0WoywM8tISAh0yqJVOaSXFDXsv9qaz0wKfpne1jvpTfbNAn9BH3zt2mvHHqMGWbrKkFSXVKkQu0GDWZyg8PyAmo3/pf3kqx95m24RDVhszoZe+/RH7cCmkxQnFC9XxofJnGL32L61T5ofwX7w5NnlcoCeRB/UptBUwKjQtiUlP/fIBqGfgWlAZ/DvO66jP09Q5949Qn60daPPM3+xqDYB4Be0g7U45KoFUJ+CFXdmV0jhy6rEh66eR0Ok9flO7wzf27H6f0xk+UzxA+Kqzqfb05V5qfJaDSJ5SN4OxzM+iKEEuNRMBzJuXIVMqkJbkZA+Ii2nVOm5an+xbUnR0dUYn9Ji45oCiFEwJKddLRGLUYNZnKDxjMCenbKsZ+SW1F/ssjuhu0IQkg7QnFCdXzsXFlGr/0ExTaocuQqauPsVchQL+0rYBJCQHGBeJg4p+LjxVd3y6SwlXfomjw5/oqmpckj4v9TuIU0Y3zCNqLtTOVsIxalZAfev/L/7Bnx6b+LcQJ4A/howyAD4m7ahjqbhcApU8wG4HZ52bQ7a7RsCEErDEp4I1m0oSv2WoEsMJqRAARQAQCFAGvMSl7dxmgQOGwEAFEABEAEUAmBaHBE4gAIoAIuImAV5jUzb7QDBFABBCBwEQAmTQw5xVHhQggAs2JADJpc6KNfSECiEBgIoBMGpjziqNCBBCB5kQAmbQ50ca+EAFEIDARQCYNzHnFUSECiEBzIoBM2pxoY1+IACIQmAggkwbmvOKoEAFEoDkRQCZtTrSxL0TA9xGwKtpq1d73EfAkQnMmNdkS0ZPO/LjN30UfTn3gzvZhETF3Df7nisPV8rZtbGsSmxdET4UbZdZW5M9+uHucIzKux6hXN59oir0NhP16caqa2j8UqrBfxBOCy1VvVbQVsBfi7+ol0ErIpO7M6F+5T0QnjFi4qfDXsl/2r5s5IP7RtdK+gZRJvSZ6Ksq80pzU0F4ZuYdK6TaAPe0Dl1e4E641G1G/1jyYWze1f6h3Ub+IJ4SW9+tF+Hu/F5/x6CGT+rmc4e9bVub+fNFtCeLSd3p1mPLdVXXSbh96JXHQKqoTrdlOjRc9lbdfa7SoavXqh20jZPE/Qqrypg6Ys0PR1LAocimcLxNxTbrxmkC0Fb5HEYm2mvhXodR9UjybUqS2teGpg7fhQ9e2ipzEoZzn6Yu9IC7bcAR+a+EZkza1nOHRN7qp6kPy5+RNEu15q/7st7MHxUV3fyI7zx0+rdv8VPDY9dcIuXp4ycjk2MThczMGxcw5YGBSl+gpJEIpxg0WudQytSvJIP/UXiRyabVfunW0SH4SYlKxaCs8LtdItCUaf/OJ1Lr6DlQ8XSN0swSItkJ5JRaLtT7vbkbn02aeMWlTyxnWXjgpi2qqv8/KeyN7q55OSc3JPSun3d+pQ4/07LxjpuvT86sflvYM/nvto/Z+c7878r9FaWGO6Xs1TKoVPdXLVDReVFWbRJB/mvHq9sy8CCg0X5JX0V0YIFYKMSkk2gr61w6HHdH4eRmbphOpZV1KhUDFUztKt48Msi5QXikeDfZSvSiv3A7B/ww9Y9LAkTO87ty3bELX0Alfm9zqn/vPcIlJf32ze8+3Swghf65IczGprEmvFT2FpNMg3KDMoxks2vgV8q+x57dGNxNDFWU835YTbYWYFJIahMYFXSea+JtIpLY14Qnh3EC9gRk186LJDcmTwV6qFeVVAx3782kPmbSJ5Qy9dRcP+VFm7GrlzqXPD+zUeVDmht80GmraGVWZtDgrOWUJfeVz7qMHXUwqyS/rRE8hpjMRKxXKGmsymAsK8q+x12Y8JJIq7BcShvI5JgXyUIJKcCVr8GkFeHJDtFI0MKMGN21eUb8Ge6kzAf5WgvA3W3MmrVp1v23Ml7KMHSmY0bHzqwelATa1nKG37uIhP/WXy75dPGVAfKdBmSt2n7rWwKSpTPpLdrc+OeWEkLMfDIl6aZ/m7l7rQn+3qIpQQrhJrQUil/QNycjPFPmrqtxn7561XXrjBPmHMt5qvxCTQvKWkGgrNC4tWq4jGj9/d+9tkdoAx7Pu76q/rgmWBFbrDcwI5ZUycwZ7q/PuygD/LZkzKSnO7m7vP2drcXlJwfsjO0Q9veWSNFR/lzM88sY9AzOW7zpZ49bEqc9JL331WLtHVjtrz+WlR/db+rsJk0IioBBuUhgCkUtSkpNq7z0t/ycqhjq1p/2+ZfK3oCD/UMZb7te47pCRKlvSP7RXZn5R6fGdC4dEdpohq1wTSLQVHBeAO42/KUVqAxrP6o3pkbaQ1JwyHbgW6iHRViivIHur866L2C8PG2BScvX46qmDu7SPiEzoM3bh3ip1jH4uZ3ijzspX3K9v+EeQ9O7+2uGcgVFBQUH2ni9+Jy0UNRmmYiN9AiKgIG60kVHkkpDaig2zHu5mFEMV+9fEw7Oh1X75tppxAfKWoGgrNC6NU3Ygxd+EIrUBjeeV3dOTHbGPrD7F4JQLFuoh0VYoryB7uWNRPutiC6DDhpg0gIbq+VB+W9y3/aSt0nK8vrb67IWa2577wpYmCNArFkVqTQDCUz6LADKpO1Nz/usJsTEPvJb7/bHKP5zOvxp6sOqOS7QRIKBZ+wjOYxUi4KsIIJO6NzPXyzfMfbRvQmSIzRb8zFb32qCVVQSQSa0ihva+ggAyqa/MBMaBCCAC/osAMqn/zh1GjgggAr6CADKpr8wExoEIIAL+iwAyqf/OHUaOCCACvoIAMqmvzATGgQggAv6LADKp/84dRo4IIAK+ggAyqa/MBMaBCCAC/osAMqn/zh1GjgggAr6CADJp082EVc1Fq/ZQ5Fb9WLWH+sV630QgUOfX6ris2lubTXMmhfajtNZHAFi79G1s9Efdl958ZFY1FwF7Qyd7p0dLUdhstnH5tYbTxF0/akur9mo71yf93yTpJzgirsfI2Rsrb7jOtVip/syWmWmJjmAaWNK8IhaHF/bNZOP1hqYsC6yRBXBcjZ9fQi4fXTXl3kSHPTw+ZULO98o+j+YBg/GYN3P/rNVxAfZeihOZ1K2Zk/RtKleOtPWcV+B0Os9dMdlivyGHjZ6569WnnU6n88cFfcRM2lAA3j9PmUXSWD1ZdmDNpOS296/Sb0jk/T4b9Pjb4r5tBi0qrKRYnal2bf7VaPxlhTivaco2OBA3DbwwLqinm9/P6uxIm7/957Lju98d3qHdU5vl3TUhe6m+CeMx7dfqSS/F6SGTCrUq6RCulefOHHZXTEREbJ9xC/dUqdvO0l3aBFqVVgftLXuL2qJKt7W542wp75RyQVAG8YrmomvNq9F0JKT64NKJ9yZFhUfG9xrz+o7T/CZUJ5b1NzAp4Ofq2kfVVaz02V/a+p8QAtiD4yJXji6f0Dc2MqrbY8s/nJEUM5Pud63TWC3O7iaJtUhngHwAxgX3y4GuKZrgU5ydbH9uF2dtpnUKxAnkLY3TpWLy2+K+tlFrJW4B7AmgNSuPd33GgDhHu8S0aRt+Z2t5K/GYjAuYX/A6Ba5rGifbo6skd07WN3R3XvojitMkHqVVoz+AcYH5I7T3bpyeMalYq5KQW8Vv9o4Z/tauY+WlBz6f3NXx+DpJFp5AWpUQopBqiLfqrWmLqlGKmVSk5WlZcxHQdLyxO7NDwtilu4pKywrXTk6OSM+7qAZDiIhJAT/1V8/TlZnT6Ty1b0Fq24TMXZdlP4A9zUjRuOqPL+wd0vuFr4+UFG+ZPyIxysikdVX7Xx8QMz7/vOQfygdoXFC/rkFrS4CffbNi7HZ7aLDNJots2e3d3jhKCKx5CcUJ5S2N08WkLk1ZyN5Mu1SopWrpOoLHJc5D+DqFruu6756PvuOZ/D9cC3t5HsS4mcSjnT7PjyzmrRgH78bpGZNCWpWVOantZhQoAFW+f0/I5M3yKgrQqoSghFRDvFVP+3VfW1SNUsyk6jNTXstTaSFWZYDvJoz2t+pqb6gPEva/HJ8gaUMr3kVMKp8y+lGa3Cx7Ly2i68wCWalVqRTo8FCmEI3r7AdDbKO/qJYa1n0zKZRnUom02raxRabO3SNbEALmAzAuqF8Wqb4g9lNzrrKiomLbjMTQ9DWyOu3JC67nyQL8wTiBvHUxqVZTljJpm/Q8ua+b26aE9Fok3cLo1WJUrVnqh1db4bRUrV9HgnEpcBnyARovdF2T26e3ZPaJDItPHZOxaN3hc2pKQn6kfuF49LPo6bFhXA3kj8Hem3F6xqSQRuahVzrZgkNVqfqQINu4XDmrNHuwn9j5/qq9ZzyFz7vt3NEWVXsUMylbm2jGKLWxOnNG+5riD8f3jY8Mo5CGBttUPSjJu2UmrTu6sF9EyoIjkhSUOij6aejXxRREup9Q79Z/fbN78HM7lKaF8zR395IyYNnPez+ZmNzp6S3ymhTMB2RBQLQAABJ6SURBVGBcUL98sJoy4EeyMdzdKy0FVzgYp2ZOXXlL4xRpylImVbEinCarWwqGWi1V69eRYFzKiA3zC47XTIP29uXK/ZtWvT6um6PLjD3yc1LQD+0YjkcJq9EfhnE1kD8GeykCL8XpIZMCmo6HXukUm7FRFamvqKg4c1l+UqrJsIYR9NZdPORHicBNbVE13mZn0lsHZ3cOGzT/2+IyCunGjITGMGlN4Ws9HGnLS9mjOHVYFphUo8asY1L2F+Xy+rFBQz+5QN0D+QCOq4ErwRWxXAL9SKetMamlvKVxijRltUzqCtcDJrUUj9QTzAgGBgHmhbqBNWjV4Zxe9UCbEaulx0wmfpBJVbykT9QW5eHwEpMKNESVXvQZf371Q7b7P1HEs+p3Z0ZpmPTk8gGGN06yI70fQsjlgheSo0evOaW+AuTH5f6a9I+l99rS82QdwdvfPR/B390zJq3bPDnk7ncraQ+VOamhU7YpT9dq/zpZWXWVVoPjssikoB9pdBCTCvAH4tSsx3nENHHyJ4AVg/7uXp1H6oe/u+e0VEW4gfFIIQjGpYRmyAdovIAG7e19r9095mNZjJGQ2k0Tg+9d+gf1DflpIB6rWqeQvWFcmnkxzoXBvoE4Ffjc+zBfk6K2qIKi9ITb+C0oaOasai4C9vUHZyeEpWXtOFZRdmjj62O6RKtXoBRVzcb0tgnPbij9g75JqrpM15qAH3JlV0bnyKHLiuS3Tk7n6YvyHT5kD43r1vezOkU8uPjnv+uuln6S3jmcZ1LpW0Gnyg/lv3h3aPK8wps0xltHs3uG95+9+Uh5WeH657rbh316mlaD44L6VWZB/wH6kQwhJhVouAJxgsyliZOPynj1SmfNtGCFWqpi3MB4pE4E44LmFxovpEFb9cXoyPjRi3f+XF5WmDetr71H9lHpTzLkB4pHqregdQrZQ+PSzAs3F5C9aZzSSfd/NcCkqC0qQ+n6FoX0LSL1bQw0c1Y1F0H7Cz+8/Viv2IjwmJQnP/7s5WQNk5IbJWueSomxB9GQUqTvNUF+6H9Y8D/qszzIHhoXIWe+zegVbgsKCrtz6mvPJPJMKvkPCu3QZcjU1cfYK62a0q9efKhrxwhHXO8x87c71VcVwLjgfoGMBvxI1hCTCjVcgTi5q5GPQBMnfwKwV74FdWdHR1Riv4lLDqjfbJf8CLVUrcUjh2DU8oTmlxDAP6RBW1/1fc5T9/1fhwhHXI+HZ+WVs0ftgB8pIGM8UrUFrVPIHhqXZl64uYDsIdzkemu/G2JSa97QuhUgUF978UzVlRtk38yYLvMPt4IBN90Q6ZXPvqfZdN2g52ZAAJm0GUAOpC7qqv+kzwgqi76a/H9RT29RvpcaSCNsxrFo1lDN2C925X0EkEm9j2lAeyyck2Cz2YLsHbs9Mn/nWeELrIAev1cHh0zqVThb1BkyaYvCj50jAohAQCCATBoQ04iDQAQQgRZFAJm0ReHHzhEBRCAgEEAmDYhpxEEgAohAiyKATNqi8GPniAAiEBAIIJMGxDTiIBABRKBFEUAmbVH4sXNEABEICASQSQNiGnEQiAAi0KIIIJO2KPyN6tyqVqJV+0YF54eNreJj1d4PIcGQ3UbAnElRW1QF8u+iD6c+cGf7sIiYuwb/c8Xhavmfe+j/qEg/LaKpCWglqiEbPgF7476Wl9aOCrXb73n/JBXq2fxkrMPRLfsXgzt9hdEPadT/8BTOS9Lu2KLv0NvHAD5gN4C9AAe8jkAQA+YEMqk7U/lX7hPRCSMWbir8teyX/etmDoh/dK0kUEWZwuc0Nd0ZEG9jvPIvrR0V9eCD/YZ9dp7c2JXRe+TIXq2CSXlQGlE24kmQSRuBp5809ZBJAQ1CsdagomDhv9qipe/06jDlO2mTYjqttw+9kjhoFd1pU7Pmak5NTdcufxotUhqPF7ROL60dFTTpzQV9xudf/n5W7xk5ryUxJrWmJQnGA2htEvLXDwvHdO/giO45buXHL93RbGvSpsUTZlI/v478hOSaJUzPmBTSIBRrDcpMar9j9L+3Fpf9uvetYVHtn93OdjgUDRNSDfFWvTVt0brNTwWPXX+NkKuHl4xMjk0cPjdjUIykTedi0ubV1BRrJcrMLtIEFduD2oqX1o6yPZH//byezy98NeWfO/e9GqcwqXh+QT/SXxpRPJDW5o19Mzs5hvxr57Gy4zv//dgdWo0AUaJ4q66JtSqhNWlTX0feggf9NIyAZ0wKaRCCWoOA5iIUn7c0RCE/tF/3tUXPr35Y2hr577WP2vvN/e7I/xalhTmm71XWpC2iqSkDZ1BToMyu7kLdCK1TyqSP5V7e90JiWPsnN177YXYHhUnB+aXxCO5qNfHsnd4+bvYPUuR6NQ5Va7MyJzVo4iZZreT2zozIZluTNi2e4Jq0qa8jeVj4uzkQ8IxJW5e26Ln/DJeY9Nc3u/d8u4QQ8ueKNBeTtoimpsmVz/SUuD3DlUwyMK9Ub2RAyqSPfHW57uj6N1cX/k32zYxWmNSqlqRrza7VKIUU4oqzku0Zu5Rom/2Nk/t6VhbxBJk0cK4jBZFW/OEhkwIahKDWoPGqNsXcW3fxkB+lcze1RVUmLc5KlkU+zn30oItJGXM1n6amip2BGSHmUhoY7KV6MZOOWisL8RKiZVKx5iV1ZPSjfY7M5QAyqfrnQqzl6a3rSE0U/Gx6BMyZFLVF6QyoTPpLdrc+OeWEkLMfDIl6aZ/+jVPzaWqqaWFgRo+Y1KhJSdekQia1qiUJxaO/u1fv4ivfvduTu3tIe9JqfVPhSVrqOlITBT+bHgFzJkVtUToD6nPSS1891u6R1c7ac3np0f2W/q4waQtoaoIaohBzWdRWBJnUqpYkFA+ktXlj30sJ0hun8uM7//34/7VTGdb0OvAHrcri7O72/nO2FpeXFLw/skPU01vkBT+k5QnizK3rTTHBk82OQANMitqihJDrG/4RJL27v3Y4Z2BUUFCQveeL30nykJQpWkJTE9JKhJgLspfTzaABCTIpqEkpOTL4Ae/uIa1NQs7vyx7drUNE1F1jln7wonvfzPcLrcqrx1dPHdylfURkQp+xC/dWqdc5pOUJaX8ik6rI+dxnQ0zqcwG3REC/Le7bftJWaRlRX1t99kLN7ZaIAvtEBBABn0UAmdSdqTn/9YTYmAdey/3+WOUfTudf19xpgzaIACLQehBAJnVvrq+Xb5j7aN+EyBCbLfiZre61QStEABFoLQggk7aWmcZxIgKIQNMhgEzadNiiZ0QAEWgtCCCTtpaZxnEiAohA0yGATNp02KJnRAARaC0IIJO2lpnGcSICiEDTIYBM2nTYomdEABFoLQggk7aWmcZxIgKIQNMhgEzadNiiZ0QAEWgtCCCTtpaZbvQ4rUppWrWHAvSWn5byD/WL9QGFgDUmlbfrYL+bBAlgm0u505DIxNT0RQVnbzVJ103qtG7rJLvNNuA9KtjJ/9Sf2TIzLdERTAeYNK+InRLgwM41tuCSLZJgVbfZN3frvpSm7AewN3Syd3q0mlHj8msNp4m7fowtNTUgnl7yT4g6CuVT0zseBDoCnjNpUyEjyHi6xZG0eZ3zRMn/lo6JDx/+H6pH518/P74S17d//9DR69gOynL8vy3u22bQosJKp9PpPFMtK2/QMwIcvDZgSbaocuVIW895BU6n89yVRvxlanSc16tP07H/uKCPTcikXhp1o+N0Jw6eTN2xR5uAQcBDJtWOnzJd+uL1GQPiHO0S06Zt+P2Gev5qyRfTHuja0RGVlPrkuz9cUKuFkoqX1j7KJyItP/gRE0NmW9OT3xb3VfchppuMCSVLgX5JXeWmV0b1jI90xHYfOWdjJeMtkWQmVRE9tWXm0K7tQ4NC2iUNzlhXrtpD9er4BJ/lOakJc/JWpDkydjJ0JLPi7GT7c2wLdUIIjIN3pVtrc8fZUt4p5WKV53Hd8/1iHVFJQ6ZvPKkSrGsNy0mZmsQptKcdVR9cOvHepKjwyPheY17fcZrfU+vEsv4GJgX8XNVlSv8lFcooRP49iVOcPyA+HIaulSlfaaUMyeeB2UiA7AWvDivRoK2bCHjCpAbXNMNiB8/L/amsZP+n6Yn2MV/KGzBCEpJiSUVziUoXkzpX3mcbulpi5aKsZJFkKdRv/S9v323vMy3vUGnZ4fwX+oal5lBVJkLEkpmEiOOE6w3AuCqqPxsZNnnz9eLsbslZ6h38vlkxdrs9NNhmk1T17HZ7tzeOEgLjAMVJABxc3YtKYiYVSYFalCYlYntCbuzO7JAwdumuotKywrWTkyPS8y66AhMxKSD5WX/1PF3FOp3OU/sWpLZNyNx1WfIj9g/jCcUJ5Q/NcyE+rlFIJXlBoKtkh+ZnCSj6BGWjd7OChYkFawh4jUmHfapsX3t4fpfIzN1SFHqRCVVCEpJUlBoJ7sJoBstMWl/r3D69R0jft+WlFCBZCvX754o02+PrrsgIVe/NeX7ZD9IGeZBkJhQnVA9DX7f96Yihq8+TW3teiBq43Ckb1pyrrKio2DYjMTR9TYX0c/KC6zmhAAcoTsqkbdLz5LY3t00J6bWIX2oCYYmZVH1m2ghpUrU/g5gHuVVXe0Nd5+5/OT5BkrpWzEVMKp8y+lGa3Cx7Ly2i68wCZUaJqX8Bnoobg38of2gemuCjuFMfmLJDXcFTJoWyzrtZoQsWD91FwGtMytaMpe+k2CZ9I/UPCZ9BkopSI0HG0wyWl21t29jCu01YfVzZIVSzhfiJne+v2nuG+oD6/SW7W/BzO4zQgJKZJ9c8Eh3coXvaqCenzn1v03H2hBOqN7pWagrnderzFpWAupL3eOhjuezSJ4QY7u6VJgIcwDgBHMBwpBNiJmXzqPEpN8gfb+Pu7uE4lTMGhiI1xR+O7xsfGWaX1+IacRHLTFp3dGG/iJQFR64r3VHlbRP/AjyhOKH8cf1F10qlugKQSw1xpd5eewze3QNZ592s0MaCR24j0DJMCkiTSlELMp5msCSGXHni7GX+KaPxapdcQFeCCZNCkpk3L5Yf+Db30/eynunXPnz0F0w2AqoXA1/53gBbsN1Bf8JDgtpN+6+6MLPMpOI4ARzEwai1zc6ktw7O7hw2aP63xWV0Ab4xI6ExTFpT+FoPR9ryUi4dzP0L8kpBwsD4UP60MJMCVw0KkaoZ3aKfnjCpzaZrRTOMv7tvN+2/0qD0d0nqlXOl8mBBiSSERAg5trBH6LPbXSAYpS61ckAuS0LvaiUler6OEAL1K9/dy8/UyMWd2RPeKVDv7kOnbFNeJ9X+dbKy6qrkEYoTqteFwQ4vfTE6eMTyX09IP5szO9214Cg7B65JBTiA0p4ADq5ORCUvMakgTqU3PUOdX/2Q7f5PlD9G9bszo9R8kOxPLh9geOMkO9L7IYRcLnghOXr0mlP1/MDM/bsfJ5g/bjGpvCA1XCOuQBtasV74ZKhthPwegNzelRGlPliHss67WeGKE0uWENBxYgNtWZZoE4VmWNyQ13J/Kis98Gl6Z/uYL6VX7gSSkIQkFaXei7KSwoYtKSyl65az8m2wJoP5EAEGgfqt/+WtFHufaRsOlZX9lJfRy95/ifw4EZJyhOKE6vnQuPLNnc86er9bptTU5I8PHrxSegoh1UB39wIcoDihvyhcDNoi8C0oDc4cthalSSHp0/qDsxPC0rJ2HKsoO7Tx9TFdojVMWrMxvW3CsxtK/6BvkqqkWw+o3yu7MjpHDl1WJL91cjpPX5Tu8M39C/CE/EP5A+HjAhe4QFwGpKGnqISQsiX9Q3tl5heVHt+5cEhkpxnyn3sCZZ3XskITJR5YRMBzJuXIVMqwJbkZA+Ii2nVOm5an+xbUnR0dUYn9Ji45oC5DCSipSKNvQKKSHyB3tfPVsHRlbUX+yyO6xzocsd1HvMx9C6qm9KsXH+raMcIR13vM/O1O9eYbihOq1wahHhVlJUVl/o994+fEsv4h4/LlVa/J3b0AB1DaE8RBDUH36fp2kXTpq29RIKawKE1KQPsLP7z9WK/YiPCYlCc//uzlZA2Tkhsla55KibEH0ZBSpO81QX7ok0T+h92XmPo35hXkH8ofCB8FXT4k7urQYe/GYW1F3ktDpe8O3vPMBz/9rbYAsw7IXqtZofaDn54gYI1JgR5ohk34Wv2yJWCE1YgAIoAIBCoCXmNS9s43UJHCcSECiAAiACGATAohg/WIACKACLiLgFeY1N3O0A4RQAQQgYBEAJk0IKcVB4UIIALNigAyabPCjZ0hAohAQCKATBqQ04qDQgQQgWZFAJm0WeHGzhABRCAgEUAmDchpxUEhAohAsyKATNqscGNniAAiEJAI/D+HFdC7sraaMwAAAABJRU5ErkJggg==;" vertex="1" parent="1">
          <mxGeometry x="-125.5" y="450" width="451" height="159" as="geometry" />
        </mxCell>
        <mxCell id="FMzEofUCimhhwloj-WMJ-2" style="edgeStyle=orthogonalEdgeStyle;rounded=0;orthogonalLoop=1;jettySize=auto;html=1;shape=flexArrow;fillColor=#f8cecc;" edge="1" parent="1" source="FMzEofUCimhhwloj-WMJ-1">
          <mxGeometry relative="1" as="geometry">
            <mxPoint x="870" y="150" as="targetPoint" />
          </mxGeometry>
        </mxCell>
        <mxCell id="FMzEofUCimhhwloj-WMJ-1" value="BeanPostProcessor中&lt;div&gt;postProcess&lt;b&gt;After&lt;/b&gt;Initialization&lt;br&gt;&lt;/div&gt;" style="rounded=0;whiteSpace=wrap;html=1;fillColor=#f8cecc;strokeColor=#b85450;" vertex="1" parent="1">
          <mxGeometry x="710" y="350" width="320" height="60" as="geometry" />
        </mxCell>
        <mxCell id="FMzEofUCimhhwloj-WMJ-3" value="" style="shape=image;verticalLabelPosition=bottom;labelBackgroundColor=default;verticalAlign=top;aspect=fixed;imageAspect=0;image=data:image/png,iVBORw0KGgoAAAANSUhEUgAAAXwAAACFCAIAAADXb9T4AAAgAElEQVR4Ae1daVAUV7SeoiwoS2oooKRACyjQkjyLuJQaNIUaFQvjmrigUYu4JEYTFYxbTJTEkETJ4hqNJi4JZkEFFR9qVPRBJGqUgBIXwEBER3EFVwRU7qvb2/T09OnpgR6YZg4/mDu3b597znfu/ejuGc5nIPiDCCACiEAjImBoxLlwKkQAEUAECJIOLgJEABFoVASQdBoVbpwMEUAEkHRwDSACiECjIoCk06hw42SIACKApINrABFABBoVASSdRoUbJ0MEEAEknYavgdq89W+8Fr/nWsMt8RYMBjAvBtEPIUT0TuYUWTuynezMCod41+iMQlu5wY5UP17ZGh5tNgioXUDNJmAHBPL48LzwkKh1hQ0wLeYO2bZgW9jDki0t9EtGQv1iwhK3hdnFdoRO2YYwUtIQphYakgH41jURQNJxirwL21JosETAOifpFHa+hCzEkUhOEdsRHxLPIm6Lx4jb4inENoW24Jt1w/pc7HFNBJB0GpT3QzM9ud3VZ81lsaVHhb/OGdyprY9fWOSUlcfvCIdqSvcuHtU9xNcnqOvIj9JLa4QDtCFsb+uGxTj+DTRM6OcHcpbZfvFRoceaI8TDBDvKDckpkrfK5+JR10FAmXTOftbF0+Jn2t5nFBtX6wfXQ1WFyWQylW4eY7AgnWdnPu/m1S9h/9niwpyNY0MCpmVUMibqLnzzsmfEnLTcouK83e/3NEaukrknE4gAnJU/IN7V4rbkCkg4JLEs9PP2ZFhPfMiamISjbENiUPJWMtgxb3FlOgZXTa0qk071nbISi58bD5nZXa3fBuTVuydZkk7pqkiPaRncZczZzzv5vZ/FmLi+YaDhjR0shqQye9Ws9cerRLbZXS10SN5aU4kCC4g3vNBmG+K3whQKpgR/bDbERmQv3GxaaPAAXJkNhtDxBpRJx/HzN4sZrEgnd3E7/4U5XGyX1/c3TExlGOjCsi7uMw/JxCxsfutj0CEJg0hOFJjFevOLD4mPStoSg2reCpYlvgn9aozgmGaPgDLpuNrFKhSvjWXQcNJhJxBfKQht67klNCR5K5gSThT2vIQLxCOF6YSG+HShU7YhHimx2XAiE4yra0AZbK796lBxslHKpONqF6tQvDaSZkU60tsr/7nZjAn29uoBa64ic9nkFcckt1eSmQS+YPvZPS8ZI3tI4BexBaFTOEVCCuLB1rOIj4rbwkihU6HBDq65d/NuVZ1wotCwt184kW9AGWyu/XzcunpVJh1dhdIEztZUlvMPkiMS/6LN8nv0Poo+SPbul3CAe5DcZsaBe4x3dRe+7uUZMWdXbnHx32lxPTz7rCkSey3sVaFTtke43GApQ/wWOlFsx7otWJA0BGtsw/pE2QGsEYHO2LPE55LK9Fhfg0fkqmLJ+fb2S07HtzpBAEmnIYnK/zhMsk/DEvMZg8xH5i+29fHr0HvqmpN3hUmqS3Z/+HrXIB+foK6vfyjzkbnEnMVeZYwIPZLNLPSzUym8FR8SCEL2LMFrgUGEHsGI0JCMkfSL35KHR+eG+wSNTr4imGMb9vZLTse3OkEASceJEmWxMxm/ZHsEYlK40pEcEuyIWUbSKZgVGiw04lPEYFkPE44KlhV6hEPYcDUEkHRcLeMYLyLQxAgg6TRxAnB6RMDVEEDScbWMY7yIQBMjgKTTxAnA6REBV0MAScfVMo7xIgJNjACSThMnAKdHBFwNASQdV8s4xosINDECSDpNnACcHhFwNQSQdFwt4xgvItDECCDpNHECcHpEwNUQQNKxL+OPSw6vmz/ua75Wjn0n63m09X826Dma5ul76ba4GUnbz9yV+fd9pwq4eZBOyYpehrf+9ymLbH5iuE/cEUegXHFieVTbDqM/21FQ4QjzTmRT+L8qgWusG6y74pGSthPF43hXTn8cxhcw0Way7Ln+PJ4TdlebbUL9hJCq0qPrZvQM6Dxj7xVuL5hPc6YWko7qbDzMfDfQ/40U03PVZzSDgRKuEd42g9C0DUFz0nlSeY3WSvnriwiDBelA/Xw4948t6GwcvMnEv3fCV2XSAa8gnl/Zt3BYp4BWbh6tw6LjdlwSVA2qLqUuHN450Ns7KGJCUtZN/kKPXn3M3PDLWxEB3v4dh3xw0MQf0AaSxvDzQepEjy5fnLdw3NHzmtb3N8Su3jGrd5CPX9iguellTFl8ilnlqXVT+4X5efmG9IhZeugaS4T5iWH94xOGB7YdsDpnX/wLrUNHrP+nlkUYyItN+AWWYf/q2hyvxQA26p1xfYN9WncYOGfXf1wMQNSEQKtRtv9cUre+a0sJublpiOGFT3IJIZlxbWcdZpAFNDzA1Xv3eFJM1zY+/t0nbNyy4AVbVzpQNsFVRMG8vL6PJelwCEP9hJCK30a6R6y6pEUqHGOjfqRTs+8drw5Tt+WXXr18/sD8lzyGbmHlLZ8VLH8pcMTXR85dKjr5y7ROPm/suMW6nZ8Y7vnCmK/2FxRfzP56uF/AewefKMUDFZeEzoHSpqWf+YnhXrMzLT1w9Lx0mYZEJ+zILbyYtXKYv3FCKluZp/ZofJvQ8euO5BcVn06ZFu4dm8bc7+UnhrUevSn/5Bd9fXou3ndu5zuB/u8zT5+gvIA48xf29JUNWWhYIuCIdzTqoOiPU/8uLjzxY2wHz5jfbjLTAFETKMvy/Y9SJwTQQo4nFvQLDx+X8ojc3jK015oSrvSanIYHAVZvbc7Cdj6DPs88V3w+86txL/jxpAOhCmUTWkVM0BC5QP30pOKvXnJ7O8N577DqRzoVP40wDP6B09F9+uThwydshKWrIlvPP8YtxNJvX/GYlsH/DQ5vEZvG3pk+PTDDo8eXFiXzuDOEF6i4pDBA0oDSpqWff34QFPrRScuJHT0vXaZDNpczk9ZlvR8QvOg468Czmupa/qrnxIchnGP5iWHhiQWEnPwodELqI1Lx8wjD5Aw6DMoLiLOEYsQc5PhLHhr18B9ZoiF5n3b0jT+qFDWBsgz0537SbuS2e3e3vTZ+1sx+iQUkL6Hj1H30YkpaZJbX8KCkI7d6S1dFuk3dy17kP8+M8+VJB0IVyia0ipigIXKB+ulJ5RujDeO2c1VxWeic6nf9SIeU/Tza371N14GjpsxOWLv3/H0uptzF7QzurXilLA83w4RUlmgsHu5ezvz2h2x2J2mEBZg2Df3MWRiomnS0wocu00n8U0Qxho8LNk3qGeJrpFC3cjdwy12GdCYxj9fBvED4S0hHqApo3W9dLazBrGQRdRHzGQHrp3zUBEIb6L+7bXjnL86fTui/NGPDoAm7K/dM7JHEyI9BGh6UdMwfTZhXb0FiuKfwiYWKZzoWcYlsgquXRg2RC9RPz6GkMzaF35RQjpuuv56kQ8jTiksnf0/9cW3i9N4BXmN+Zf8u5S5uFxSXLlLKKn/APgMRQawmVugCFTpXIW2a+XniwxDhQoP3w9HzAsv02alF7Y1Rn/5eUEyhTo8LVUE6snkBcRZf2rDBsnQjSzo8Glq9WkRtJh0oajqtbJah/py5wdO2b4sZ80tF5uzIpPTVL09MZW721ZGOOUqIdCBULeIS7QiFVVQ/0jF9N8Awfucjs6dO1lImnTtbhxleT2ZFcZ8fifML5yoAPyw9dayQL/x7Lqlbq/cOMnGVropsNeMA91S5+m5Z6U0uchHEagCALlChc2/+8Koh5je2+Dk5Nr9t+yWnmKFa+ln4TU/3N3dZPopyND7AMr2dPNTw6lbu/qPuaDz/NAG80oHyYhtngWWsG1AyGtxPoxbfXrWe83/UJhQ1gbIM9V/7Lirq7bf7L/6LlKzpN2XmuxHcqpbeXvG3S5ZXOubwSle+bPftldx1K7SKmJnKvusr+yAZ6qcn5SV08Io7YvGRh9lrJ2gpkw4pXtOnVY/43flF5zOTBvm2m88pplT8Mtqj86zUs6VXywqzlg3y6rq8gInl2dll3b36LMo4c6n49M6ZXT2H/8g997GTdOwGpmBZV88+H+0vuFR47NuRbfze2cdeW2rp59M/PwhqPSXD8qLVwfgApFN3alGocWDioXMlxbnpS2M6+tu60gHzYhNoa64RemyeW98BNOrgQZ+k/l1cdPLH2PaeMb8xH0dAURMoy1B/3cH3OoaGjki+TWozpr3Qrl3Mb6zoM6ThAZFObc6CUOZB8qXzmV+98T+tBZICAgeySaBdxph5nB7bMvS9XUVX6efnNx8IH+RB/YQ8PfNZp5ZjdjjxV8lskA6pLklbMKxTWx+/sFemf/83dy1BSM2l1LhBHf1buXn4hEa+ufa0cOBx0fZ5Qzu19fYJfinm04Mm/mGno0mHPDqfPDu6Y4C3b2jE+KRs7iJAWz/rLv8w2Cds6o7LwvcDCHEwPuAyvXP8m3E9gry9AntN2bLtw3BbpEMIkBdge5i7BYoRP6kROs3jbLeeHZhhdBvzqyVpy57GRL0mNa5vsHfr9gPnpAkfmctHDWcZWqXFK182BMz7kxBy8auuhqDFf/FuABoe4Oq9nbNsTJc23n6dY9Z9P8/mlwPBbEKriHGrtvDnt3sFerrRBLCfsrHeyvc/v5OzJNKry5KTlpfkfIDO8WqLdJzDS2fx4n7e6teCfTuN2nLeWTxynB9ilhEeJEumEz/6kW2LxtMnF71WKH5oyY2mm3PyHjG1i8xgE0bg5oEPItv6vrzgwHX+jz08timPIOnYi36V6a9d2fRrHfhjDwI1+6a29J9/TM3XuS2uCOyZw9XH3s7dl1lU6dyEQ3OEpOPqK7WR4i/8uluLsakP1cyGpKMGJR2PQdLRcfLQdURAjwgg6egxa+gzIqBjBJB0dJw8dB0R0CMCSDp6zBr6jAjoGAEkHR0nD11HBPSIAJKOHrOGPiMCOkYASUfHyUPXEQE9IoCko8esoc+IgI4RQNLRcfLQdURAjwgok45ipQ89hltvn+/lb5o9+MUAo3dg5+h3N+RVsnUD6Hdn2R8P3w6RsV8eu1G/76Dzdtxa+b84KP6ns6q+uAvFsn+6odcKff6fhkvjoKIMGJRypl8/eUfSUUwkd/Bu6kT/0NeT9p6+WHzhxI6FfUPGpjDVFugmGbO51GQyXS78Y11MiNeIn7haHmqsmsfwdq78m/e/n/T3Dn4/q8p80N6WfhafVWQujQOSDrsewCsd2Tr79BxAdYAWB3CgGoTV6rXR8d++jan/VKi+Kila0aPNjMNCJbbnuYs7RDEVoukmEcoykX9X9zSMYqtEgvHK4yO28/yPeW3bLuDV/OTHy+sf3E8ZK/1X7yGb2cr4oD+y+gdXN/Rz67fhKgdi7dF4v6D5x5XQov7HrpbRbwDnlY9L7zjYWHYyhyE9CXl8nC3vMgGp6arflY58nX1CINUBWgZJCzUIqBCkvf03fl8UFezfdeKyNDXUU5Pxtvv4nVWEPMpbMzI8qMOIhLioQKZGu3iTEGLa2N8wjK2zCMQL4WNh58KXPdyn72eSB42Xx//5g3JavnTreEO3j7LYmrHX7rFcAflz5vNucvoHpu+i3AZyrPM8Z2FI0Lw/lDiHUP/l9BugvENx6R0HNTtOPAbSk4Dwcba8i2Oxo10/0gHq7IOqA3TxydXThxyFymhq1U/nfVyWtXHOq+3adItdlnZO8arndvJrTF3ueyljPXsnHD7zx5cDjT5UxYTZbOyVTl216eDcbh49v2ELxgDxQqoM0GaDxkP4M3jK3V7B/nhMy+Aq15z9vJOgf2D6fpBb9Mbr1N7fS8IC5mYLFetkU0b9FxcYFfQb4HllVUP0joMsOAqdkJ6EXvKuEJrSofqRDlBnn4CqA/QyWyicb66nr+RZ4xx7YspZP7lTq8l7FP6S3/ppBOP8xeVdu39DdQOubxhoJp0WLakkQ8sWBq8uk5PPc89igHghfKDNBo2H8GcwA0hHDn+wFDm5vjm6RfTm64T8s7xTQFyWMueIyJcQYi6lTiwLfZrzDsWldxzsXbNQaXcIH2fLu73xcuPrSTpA/X1Hq0HYexsFjeeCf1SauW7WgHbto+J3/atQxponnYLEcLZe5K3NQ8ykM2pDYUlJ6eUb5vK1RLLZzKmB8JFuNo8ZB5iToPGQzgFzkk3SsfDHfyH/+Ojy+v6Gial8wb4bmwa7D91SXrSil//sTL7TfKZly8J/kHTM50BxWdi58GUPveFgjlBdS4F0ZNU7nC3v6qK0GqVMOo2hsmDlEq08fKdMpGNTUlJyg/0QWav+ugfFv6+e0TekXVT8hqNXbH1SxJPOhWVdWLXWG98P8mMe9VpsEnEgFlc65gOQKoPYDn2QHMgxATQe0jlgZjoww/ojc9gfi9srcWnx8q3D3EckLu3vO+swq11mDsOqRf0X315x+g0g+UJx6QyHmns371bJ/LVS3Q/pSUD4OFverRaCug5l0iGNoLKgzk9tR5357JUBcd8dKXusyiz/TOf+9nGtRyebqm+lxfr3XvefxTMdiSFgk0OqDHSz0Y/er/yblyH+yBwaD+kcMF7kJ4YZh685XURpmyNry9scs6+g/gEdcjN5qNFo9Jt+yCbnMLdXMvoNIOlAcekKh8r0WF+DR+SqYjOeTMuOfkhPAsLH2fIuiVztWxuk0xgqC2pd1XBcbY2tGwbxZE92venGfHpVlbdqgJ+bm5tn93mHGdUv8V9m8RnQJodUGagd+uPW0q9j1Oytoi8HAioOkM4B40T5/vkDQoyMfMCk3azeM0CChAD6B4yd21uGGnze2adCV4DBQU6/AZxXPi5d4fDw6Nxwn6DRyVcsMk+IXf2QnoQ8PrAKC/Wh8fMuiVztW1uko9ZOsx737+qeAW/tZ8RT6qorb9x5rKa8uP4ROf9FF+O0DDVXg5Qsmq9+g3oc9J9zGoHD40XSUbNQbu+ZHBQ4+JPUP8+VXjWZ7tp6CKTGpPOPOZfU2Tg5Q/hKpJLDzJUOr7muNFCPx+zAQY/hWfns+HiRdKxAl+14cmlXwtieob4eBgP/zT3Zcc2n81xSd883d6niHMuPzJsPBEwk9uDQHEJvhHiRdJrDQsEYEAEdIYCko6NkoauIQHNAAEmnOWQRY0AEdIQAko6OkoWuIgLNAQEkneaQRYwBEdARAkg6OkoWuooINAcEkHSaQxYxBkRARwgg6egoWegqItAcEEDSaXgWa/PWv/Fa/J56VUdu+OxoARHQGQLKpAPWSNZZlA11V/hHRFm1hseH54WHRK2j5b2a+Ef+3xGy5/rztZMnqPtfBT5eg7t3cLeRi9JLbRTxckjYrlOonIXPdeJF0lGzYegm5EpPNFytQc2E9RwjTzpPKq+ZTCbTX19EGOwgHUbloqz45M9vhbd89Qfpv1LX00F7TnOdTcii4jrx1pN0XEsNwuJ/iyzUGg7N9OQuIvqsuSzaUQA+lBRkVRPYEhOd2vr4hUVOWXn8Dm8KsENI5al1U/uF+Xn5hvSIWXroGvdv79T+m2vT5vQL8fHrED13z2XxFcrl9X2sSUdedcCCvAqWdTGXOpUfr+RP7Oods3oH+fiFDZqbXqZQFJYN2dXUEVwtXibL9SMd+ar0zVUNQlyAnRAiUmsgVRX0GqJ08xiDBelA+NDNLKeaQItpyakyQHZqj8a3CR2/7kh+UfHplGnh3rFpFUw2JfaNnDwXu59lSAdSHTCTTs3NE0v7Bk7afZuxAY1X8ickOmFHbuHFrJXD/I0TUpkyRKw/Mr9dTR3B1eLlUl4/0oHUCKAq9vpWg1AgHRbF6t2TLEkHwoduZnFZT141oXRVpEXZUF6VAbJDntVU1/JXDSc+DAllBHFYP8X2hbKh1E8Z0oHyRf1kCs63bGHwjUzIquRWCzReyZ8hm8uZs+uy3g8IXnScsyT/4mrqCK4WL5f1+pEOVJUerGJvUUHOrAogv/Qas1eNGoT9pAPhY76CsFRNAFUZyn4e7e/epuvAUVNmJ6zde56pI0bheVywaVLPEF8jFaJo5W7gaxtD9hlEZUgHyhe1wxScL/4ne+vU8Hbv7GOvdKDxqvyxWAPyOVYoVG5wb0WDpT8eboYJqWwNVQgfat5mgXrzOgTxt1MVQz4quNfV4uWQqCfpuJQahDXp8CoFHIhWVzpQ1X6IFOBFT55WXDr5e+qPaxOn9w7wGvPrTTrls1OL2hujPv29oJjWQU6PC20A6ciqDlj4+WDneLdhW5nHTICKgzp/GkY6sn5CODN5sUk6XPYIodJJmqhimC2qaymQTrOMl0NFmXRQDYKFSbwJxWoNHIhWpANV7ad25G5/pLdXPIkAdm4nDzW8upXhH0Lqjsb78eOl9vnbN8bPsu/6Sh8kQ6oD4nhJTcY0j5dXllIbwHhFfwTZZRWkozN1BNWqD9w6sRqvs3i5MBr8okw6qAbBAkw3oZxaQ01lOf8gOSLxL9osv0dLvkNV+6kdOdUESJUBsFN3alGocWDioXMlxbnpS2M6+otJJzBqSerfxUUnf4xt7xnzG8dMNIzH6bEtQ9/bVXSV+nmTkemCVAf4eE1XLuXunvdyq/CPTzMF3oHxiv7YQzq6UkewQ/WBWUUy43UVb4O5RjBgg3RQDYJBim5CObWG/I/D+K/dca9hifn0DECtgdqZJKeaAKkyAHbInePfjOsR5O0V2GvKlm0fhotJZ+LKlFm9g71btx84J+0/8UfmpLbw57d7BXoyMhGsaqAtdQqDW6s2HQfNTj7Hyo5R5iraPm9op7bePsEvxXx60MQ/zFbwxx7SIURH6gh2qT4QQCVCR/EKnNHghi3SafAEaECEACWd5quaIAq0WTUdro7gZGg5PF4kncbMOHOlo+4/ERrTLZxLCQHHqyMozd74xxwfL5JOY2YVSacx0dZmrkZQR9DGUY2sNEK8SDoa5QrNIAKIgDoEkHTU4YSjEAFEQCMEkHQ0AhLNIAKIgDoEkHTU4YSjEAFEQCMEkHQ0AhLNIAKIgDoEkHTU4YSjEAFEQCMEkHQ0AhLNIAKIgDoEkHTU4YSjEAFEQCMEkHQ0AhLNIAKIgDoElEkH1SB4FO/lb5o9+MUAo3dg5+h3N+RV1jEH6DeMmR9UTeCBEr/eTxnVytPzlW/LCCFVGVOCfHy6LLsgHiDblqmD06Bvcje04Lmskyo6GzqvDA4qZlU1pIn3NZKOmizdTZ3oH/p60t7TF4svnNixsG8IV3yYbgZUTQARvJ8yym/IkN7Dt90mtUfiXho5sgeSDgiW1QEkHUJonWNBFQBUKQDUAui5Mzf88lZEgLd/xyEfHDSxVwpWQDdSx3/7Nqb+U8HXZbA5adGKHm1mHH7Ej3ueu7hD1A9UW8/iLzCqJrAA1R6N9wuaf/wZIfdTRrm9tfyLiEm7H/z5wUvzV30SJpCO3Dq5nzJWUijEMGTzLWqU4iyvKvGo8Nc5g61VNAikssDn0FGv0Lxy8RJCZPcRjAOzB2X3kSwOVzf0c+u34SoXqzkvBLzSkfWHng/4X799Xb8rHUilAFILoGB5vjDmq/0FxRezvx7uF/DewSdKaT/7WReuHi73Mm0vwxBa9d/4fVFUsH/XicvS1FBPTcbb7uN3VhHyKG/NyPCgDiMS4qICmVLoZtJB1YSB3Op+nrMwJGjeHzRf91NGGSbu/vPj7rOSlvR6NzNnSTBHOvLr5PmDclp+det4Q7ePsmirpOTaPSbvFGc5VQlIRQNSWVBac1ocg+aVj5cQ+X0E4wDtIwgH03dRbjJ5AUlH3h/tVF44jOtHOpBKAagWkJ8Y3iI2jS2m/fTADI8eXxYpJbn6Thm76PjfN9gqUlr107kfl2VtnPNquzbdYpelnVO86rmd/BpziXcvZaxn74TDZ/74cqDRZ2429xcYVRMoEN8PcoveeJ3i+veSsIC52Uz1MEo641If5LzfwRgwJb3q+KI2HOmA64QakLmtoKQjqEpkzxVUJaRlXnkVDUhlQWnNaXEMmheKF9pHjC8yOFDSkdtHEA5AXkDSgfyB/If8sYFl/UgHUjsA1QLEt2bEXIXfhnONcFiNGsStn0YwpHNxedfu31Dx4OsbBppJB1UTaJqub45uEb35OiH/LO8UEJfFViykpDN6+4OaszuXJ5++R3IW+nOkA64Takpms5mvKC1v86GC6lDBc0cvKGheMN4mUrMAb68Af0D/67ev60k6LqUGwZNOQWI4W+Xz1uYhZtIRynGiasLQLeVFK3r5z86kdaK526tRKYJujgXpQGoHzZV0oHjl1D5Y9GTIl15ZCM9V2VHMb4h8CSE3Ng12l+YFvNKB1DUAFRDL57wif2w0lUkH1SAofDzpXFjWJWLVJZrI7wf5LciRPkhG1QT3EYlL+/vOOszeRrPPdGRJB1CVYNfqgRmGXitKLNYtdKUjva3ga0VDKgsWRq3fWKk1cENU90PzQvECah/stDI4QKQD4UANlW8dJs0Laap9zeGpTDqoBkFh4p/p3N8+rvXoZFP1rbRY/97r/uNIh/nIHFUTCLmZPNRoNPpNP8RzDvMgWZZ0AFUJdk3mJ4YZh685XUSf53HP8iDSgVQ0IJUFbtHLv8ioNTAD7eiH5oXiBdQ+QBwg0oFwYAxZ54U08b62QTqoBkEIebLrTTfm06uqvFUD/Nzc3Dy7zzvMiHLTzcD8oGoCJectQw0+7+wzfy5Jn+nIkg6oKsHskvL98weEGBnRikm7GekbiHQIpKIBqkqw+1n2t0upOzw6nzw7umOAt29oxPikbEGoCFIfgVRAgNs9WXzNnbZIxzzShVv/ru4Z8NZ+5tlEXXXljTuPn7swGHDoDlcRgKfGIwoIOF1ekHQUsiUcur1nclDg4E9S/zxXetVkulslHMCGGQHHqwiY58KWegScLy9IOuqy9+TSroSxPUN9PQwG9+n71Z3jWqMaQUXAtQDVKFonzAuSjka5RTOIACKgDgEkHXU44ShEABHQCAEkHY2ARDOIACKgDgEkHXU44ShEABHQCAEkHY2ARDOIACKgDgEkHXU44ShEABHQCAEkHY2ARDOIACKgDgEkHXU44ShEAAvut3IAAAC+SURBVBHQCAEkHY2ARDOIACKgDgEkHXU44ShEABHQCAEkHY2ARDOIACKgDgEkHXU44ShEABHQCAEkHY2ARDOIACKgDgEkHXU44ShEABHQCAEkHY2ARDOIACKgDgEkHXU44ShEABHQCAEkHY2ARDOIACKgDgEkHXU44ShEABHQCAEkHY2ARDOIACKgDgEkHXU44ShEABHQCAEkHY2ARDOIACKgDgEkHXU44ShEABHQCAEkHY2ARDOIACKgDoH/B0JQU4URpfOyAAAAAElFTkSuQmCC;" vertex="1" parent="1">
          <mxGeometry x="-125.5" y="610" width="380" height="133" as="geometry" />
        </mxCell>
      </root>
    </mxGraphModel>
  </diagram>
</mxfile>
